<svg xmlns="http://www.w3.org/2000/svg" width="680" height="440" viewBox="0 0 680 440">
  <rect width="100%" height="100%" fill="#eef6ff" />
  <g fill="none" stroke="#5aa9e6" stroke-width="0.7">
  <rect x="60.00" y="60.00" width="40" height="40" transform="translate(0.00 -0.00) rotate(-0.00 80.00 80.00)" />
  <rect x="100.00" y="60.00" width="40" height="40" transform="translate(0.00 -0.00) rotate(0.00 120.00 80.00)" />
  <rect x="140.00" y="60.00" width="40" height="40" transform="translate(0.00 0.00) rotate(0.00 160.00 80.00)" />
  <rect x="180.00" y="60.00" width="40" height="40" transform="translate(0.00 0.00) rotate(-0.00 200.00 80.00)" />
  <rect x="220.00" y="60.00" width="40" height="40" transform="translate(0.00 0.00) rotate(0.00 240.00 80.00)" />
  <rect x="260.00" y="60.00" width="40" height="40" transform="translate(-0.00 -0.00) rotate(-0.00 280.00 80.00)" />
  <rect x="300.00" y="60.00" width="40" height="40" transform="translate(0.00 0.00) rotate(-0.00 320.00 80.00)" />
  <rect x="340.00" y="60.00" width="40" height="40" transform="translate(0.00 -0.00) rotate(-0.00 360.00 80.00)" />
  <rect x="380.00" y="60.00" width="40" height="40" transform="translate(-0.00 0.00) rotate(-0.00 400.00 80.00)" />
  <rect x="420.00" y="60.00" width="40" height="40" transform="translate(-0.00 -0.00) rotate(-0.00 440.00 80.00)" />
  <rect x="460.00" y="60.00" width="40" height="40" transform="translate(-0.00 -0.00) rotate(-0.00 480.00 80.00)" />
  <rect x="500.00" y="60.00" width="40" height="40" transform="translate(-0.00 -0.00) rotate(0.00 520.00 80.00)" />
  <rect x="540.00" y="60.00" width="40" height="40" transform="translate(-0.00 -0.00) rotate(-0.00 560.00 80.00)" />
  <rect x="580.00" y="60.00" width="40" height="40" transform="translate(0.00 -0.00) rotate(-0.00 600.00 80.00)" />
  <rect x="60.00" y="100.00" width="40" height="40" transform="translate(0.04 0.12) rotate(-0.06 80.00 120.00)" />
  <rect x="100.00" y="100.00" width="40" height="40" transform="translate(0.04 -0.05) rotate(0.17 120.00 120.00)" />
  <rect x="140.00" y="100.00" width="40" height="40" transform="translate(0.13 -0.17) rotate(-0.00 160.00 120.00)" />
  <rect x="180.00" y="100.00" width="40" height="40" transform="translate(0.18 -0.10) rotate(-0.17 200.00 120.00)" />
  <rect x="220.00" y="100.00" width="40" height="40" transform="translate(-0.13 0.16) rotate(-0.22 240.00 120.00)" />
  <rect x="260.00" y="100.00" width="40" height="40" transform="translate(0.07 0.10) rotate(0.15 280.00 120.00)" />
  <rect x="300.00" y="100.00" width="40" height="40" transform="translate(0.12 -0.07) rotate(0.40 320.00 120.00)" />
  <rect x="340.00" y="100.00" width="40" height="40" transform="translate(0.01 0.15) rotate(0.11 360.00 120.00)" />
  <rect x="380.00" y="100.00" width="40" height="40" transform="translate(0.08 0.12) rotate(0.39 400.00 120.00)" />
  <rect x="420.00" y="100.00" width="40" height="40" transform="translate(0.02 -0.18) rotate(0.21 440.00 120.00)" />
  <rect x="460.00" y="100.00" width="40" height="40" transform="translate(0.03 -0.07) rotate(-0.13 480.00 120.00)" />
  <rect x="500.00" y="100.00" width="40" height="40" transform="translate(0.08 -0.10) rotate(0.13 520.00 120.00)" />
  <rect x="540.00" y="100.00" width="40" height="40" transform="translate(0.11 0.06) rotate(-0.00 560.00 120.00)" />
  <rect x="580.00" y="100.00" width="40" height="40" transform="translate(-0.09 0.08) rotate(-0.42 600.00 120.00)" />
  <rect x="60.00" y="140.00" width="40" height="40" transform="translate(-0.21 -0.33) rotate(-0.17 80.00 160.00)" />
  <rect x="100.00" y="140.00" width="40" height="40" transform="translate(-0.58 -0.68) rotate(0.70 120.00 160.00)" />
  <rect x="140.00" y="140.00" width="40" height="40" transform="translate(0.63 -0.66) rotate(1.38 160.00 160.00)" />
  <rect x="180.00" y="140.00" width="40" height="40" transform="translate(0.66 -0.72) rotate(0.68 200.00 160.00)" />
  <rect x="220.00" y="140.00" width="40" height="40" transform="translate(-0.29 0.52) rotate(1.19 240.00 160.00)" />
  <rect x="260.00" y="140.00" width="40" height="40" transform="translate(-0.14 0.57) rotate(-1.42 280.00 160.00)" />
  <rect x="300.00" y="140.00" width="40" height="40" transform="translate(0.57 0.34) rotate(0.06 320.00 160.00)" />
  <rect x="340.00" y="140.00" width="40" height="40" transform="translate(0.67 -0.73) rotate(-0.03 360.00 160.00)" />
  <rect x="380.00" y="140.00" width="40" height="40" transform="translate(0.29 -0.57) rotate(-1.60 400.00 160.00)" />
  <rect x="420.00" y="140.00" width="40" height="40" transform="translate(-0.73 -0.67) rotate(1.50 440.00 160.00)" />
  <rect x="460.00" y="140.00" width="40" height="40" transform="translate(0.70 0.59) rotate(1.60 480.00 160.00)" />
  <rect x="500.00" y="140.00" width="40" height="40" transform="translate(0.64 0.58) rotate(-0.41 520.00 160.00)" />
  <rect x="540.00" y="140.00" width="40" height="40" transform="translate(-0.62 -0.06) rotate(1.33 560.00 160.00)" />
  <rect x="580.00" y="140.00" width="40" height="40" transform="translate(0.24 0.22) rotate(-0.41 600.00 160.00)" />
  <rect x="60.00" y="180.00" width="40" height="40" transform="translate(0.98 -0.50) rotate(-3.32 80.00 200.00)" />
  <rect x="100.00" y="180.00" width="40" height="40" transform="translate(-1.35 0.98) rotate(-1.57 120.00 200.00)" />
  <rect x="140.00" y="180.00" width="40" height="40" transform="translate(-0.78 -0.60) rotate(0.54 160.00 200.00)" />
  <rect x="180.00" y="180.00" width="40" height="40" transform="translate(0.69 -1.16) rotate(-2.60 200.00 200.00)" />
  <rect x="220.00" y="180.00" width="40" height="40" transform="translate(1.06 -0.60) rotate(3.23 240.00 200.00)" />
  <rect x="260.00" y="180.00" width="40" height="40" transform="translate(-0.41 0.64) rotate(-1.18 280.00 200.00)" />
  <rect x="300.00" y="180.00" width="40" height="40" transform="translate(1.52 -1.30) rotate(1.27 320.00 200.00)" />
  <rect x="340.00" y="180.00" width="40" height="40" transform="translate(-0.33 -1.42) rotate(3.47 360.00 200.00)" />
  <rect x="380.00" y="180.00" width="40" height="40" transform="translate(0.43 0.63) rotate(-3.17 400.00 200.00)" />
  <rect x="420.00" y="180.00" width="40" height="40" transform="translate(0.88 -0.72) rotate(1.28 440.00 200.00)" />
  <rect x="460.00" y="180.00" width="40" height="40" transform="translate(0.43 1.42) rotate(3.75 480.00 200.00)" />
  <rect x="500.00" y="180.00" width="40" height="40" transform="translate(-0.83 -0.48) rotate(-3.67 520.00 200.00)" />
  <rect x="540.00" y="180.00" width="40" height="40" transform="translate(0.24 -1.24) rotate(2.64 560.00 200.00)" />
  <rect x="580.00" y="180.00" width="40" height="40" transform="translate(-1.47 0.69) rotate(-0.07 600.00 200.00)" />
  <rect x="60.00" y="220.00" width="40" height="40" transform="translate(-2.90 -0.91) rotate(-1.93 80.00 240.00)" />
  <rect x="100.00" y="220.00" width="40" height="40" transform="translate(2.57 -1.26) rotate(-5.41 120.00 240.00)" />
  <rect x="140.00" y="220.00" width="40" height="40" transform="translate(0.41 -1.68) rotate(6.20 160.00 240.00)" />
  <rect x="180.00" y="220.00" width="40" height="40" transform="translate(-1.74 2.19) rotate(-0.55 200.00 240.00)" />
  <rect x="220.00" y="220.00" width="40" height="40" transform="translate(-2.02 0.97) rotate(-1.06 240.00 240.00)" />
  <rect x="260.00" y="220.00" width="40" height="40" transform="translate(0.85 -1.61) rotate(-6.60 280.00 240.00)" />
  <rect x="300.00" y="220.00" width="40" height="40" transform="translate(1.24 -2.25) rotate(-1.02 320.00 240.00)" />
  <rect x="340.00" y="220.00" width="40" height="40" transform="translate(0.01 -2.07) rotate(-3.67 360.00 240.00)" />
  <rect x="380.00" y="220.00" width="40" height="40" transform="translate(-1.69 2.64) rotate(5.31 400.00 240.00)" />
  <rect x="420.00" y="220.00" width="40" height="40" transform="translate(0.69 -0.42) rotate(5.50 440.00 240.00)" />
  <rect x="460.00" y="220.00" width="40" height="40" transform="translate(2.24 2.65) rotate(-0.69 480.00 240.00)" />
  <rect x="500.00" y="220.00" width="40" height="40" transform="translate(-2.01 0.12) rotate(-5.50 520.00 240.00)" />
  <rect x="540.00" y="220.00" width="40" height="40" transform="translate(1.80 -1.49) rotate(-0.91 560.00 240.00)" />
  <rect x="580.00" y="220.00" width="40" height="40" transform="translate(-0.86 2.19) rotate(-2.01 600.00 240.00)" />
  <rect x="60.00" y="260.00" width="40" height="40" transform="translate(-3.55 0.30) rotate(-3.96 80.00 280.00)" />
  <rect x="100.00" y="260.00" width="40" height="40" transform="translate(-2.66 -2.64) rotate(3.84 120.00 280.00)" />
  <rect x="140.00" y="260.00" width="40" height="40" transform="translate(-0.54 -1.17) rotate(0.95 160.00 280.00)" />
  <rect x="180.00" y="260.00" width="40" height="40" transform="translate(-1.56 -4.27) rotate(-2.61 200.00 280.00)" />
  <rect x="220.00" y="260.00" width="40" height="40" transform="translate(0.24 1.13) rotate(2.24 240.00 280.00)" />
  <rect x="260.00" y="260.00" width="40" height="40" transform="translate(-1.92 -1.99) rotate(-2.03 280.00 280.00)" />
  <rect x="300.00" y="260.00" width="40" height="40" transform="translate(-1.63 -1.35) rotate(-2.17 320.00 280.00)" />
  <rect x="340.00" y="260.00" width="40" height="40" transform="translate(2.29 0.39) rotate(-3.07 360.00 280.00)" />
  <rect x="380.00" y="260.00" width="40" height="40" transform="translate(3.08 1.93) rotate(-7.63 400.00 280.00)" />
  <rect x="420.00" y="260.00" width="40" height="40" transform="translate(-3.88 -0.92) rotate(-10.25 440.00 280.00)" />
  <rect x="460.00" y="260.00" width="40" height="40" transform="translate(-4.03 1.17) rotate(2.27 480.00 280.00)" />
  <rect x="500.00" y="260.00" width="40" height="40" transform="translate(3.22 -1.41) rotate(8.65 520.00 280.00)" />
  <rect x="540.00" y="260.00" width="40" height="40" transform="translate(0.45 -2.11) rotate(-8.25 560.00 280.00)" />
  <rect x="580.00" y="260.00" width="40" height="40" transform="translate(-0.25 -1.60) rotate(-0.59 600.00 280.00)" />
  <rect x="60.00" y="300.00" width="40" height="40" transform="translate(5.53 2.39) rotate(7.97 80.00 320.00)" />
  <rect x="100.00" y="300.00" width="40" height="40" transform="translate(3.45 3.42) rotate(-12.26 120.00 320.00)" />
  <rect x="140.00" y="300.00" width="40" height="40" transform="translate(-5.12 1.66) rotate(3.61 160.00 320.00)" />
  <rect x="180.00" y="300.00" width="40" height="40" transform="translate(-3.22 -0.43) rotate(3.44 200.00 320.00)" />
  <rect x="220.00" y="300.00" width="40" height="40" transform="translate(-2.84 1.73) rotate(-14.22 240.00 320.00)" />
  <rect x="260.00" y="300.00" width="40" height="40" transform="translate(1.90 -2.12) rotate(-6.96 280.00 320.00)" />
  <rect x="300.00" y="300.00" width="40" height="40" transform="translate(-1.04 2.67) rotate(10.63 320.00 320.00)" />
  <rect x="340.00" y="300.00" width="40" height="40" transform="translate(6.18 6.48) rotate(-6.38 360.00 320.00)" />
  <rect x="380.00" y="300.00" width="40" height="40" transform="translate(-3.52 -2.16) rotate(0.05 400.00 320.00)" />
  <rect x="420.00" y="300.00" width="40" height="40" transform="translate(0.02 -0.86) rotate(-2.13 440.00 320.00)" />
  <rect x="460.00" y="300.00" width="40" height="40" transform="translate(-1.01 6.58) rotate(-4.92 480.00 320.00)" />
  <rect x="500.00" y="300.00" width="40" height="40" transform="translate(-6.37 6.27) rotate(3.78 520.00 320.00)" />
  <rect x="540.00" y="300.00" width="40" height="40" transform="translate(1.37 -1.93) rotate(-6.47 560.00 320.00)" />
  <rect x="580.00" y="300.00" width="40" height="40" transform="translate(-0.76 -0.95) rotate(-12.76 600.00 320.00)" />
  <rect x="60.00" y="340.00" width="40" height="40" transform="translate(7.42 -7.35) rotate(-12.52 80.00 360.00)" />
  <rect x="100.00" y="340.00" width="40" height="40" transform="translate(1.38 -1.27) rotate(-0.11 120.00 360.00)" />
  <rect x="140.00" y="340.00" width="40" height="40" transform="translate(-0.24 -4.81) rotate(-15.92 160.00 360.00)" />
  <rect x="180.00" y="340.00" width="40" height="40" transform="translate(-4.38 -2.61) rotate(14.94 200.00 360.00)" />
  <rect x="220.00" y="340.00" width="40" height="40" transform="translate(-8.64 -5.63) rotate(-19.23 240.00 360.00)" />
  <rect x="260.00" y="340.00" width="40" height="40" transform="translate(-1.18 -5.63) rotate(2.06 280.00 360.00)" />
  <rect x="300.00" y="340.00" width="40" height="40" transform="translate(6.41 -5.21) rotate(18.64 320.00 360.00)" />
  <rect x="340.00" y="340.00" width="40" height="40" transform="translate(-6.20 0.95) rotate(-3.91 360.00 360.00)" />
  <rect x="380.00" y="340.00" width="40" height="40" transform="translate(5.56 -2.51) rotate(-2.30 400.00 360.00)" />
  <rect x="420.00" y="340.00" width="40" height="40" transform="translate(-0.21 -3.60) rotate(-3.94 440.00 360.00)" />
  <rect x="460.00" y="340.00" width="40" height="40" transform="translate(-2.53 5.91) rotate(-14.81 480.00 360.00)" />
  <rect x="500.00" y="340.00" width="40" height="40" transform="translate(4.82 4.56) rotate(-14.63 520.00 360.00)" />
  <rect x="540.00" y="340.00" width="40" height="40" transform="translate(2.93 -4.70) rotate(-9.30 560.00 360.00)" />
  <rect x="580.00" y="340.00" width="40" height="40" transform="translate(-7.60 -9.07) rotate(-1.29 600.00 360.00)" />
  </g>
</svg>