<svg xmlns="http://www.w3.org/2000/svg" width="680" height="560" viewBox="0 0 680 560">
  <rect width="100%" height="100%" fill="#000000" />
  <g fill="none" stroke="#A996FF" stroke-width="1.5">
  <rect x="60.00" y="60.00" width="20" height="20" transform="translate(-0.00 -0.00) rotate(-0.00 70.00 70.00)" />
  <rect x="80.00" y="60.00" width="20" height="20" transform="translate(-0.00 -0.00) rotate(0.00 90.00 70.00)" />
  <rect x="100.00" y="60.00" width="20" height="20" transform="translate(0.00 -0.00) rotate(0.00 110.00 70.00)" />
  <rect x="120.00" y="60.00" width="20" height="20" transform="translate(0.00 0.00) rotate(-0.00 130.00 70.00)" />
  <rect x="140.00" y="60.00" width="20" height="20" transform="translate(0.00 -0.00) rotate(-0.00 150.00 70.00)" />
  <rect x="160.00" y="60.00" width="20" height="20" transform="translate(-0.00 0.00) rotate(-0.00 170.00 70.00)" />
  <rect x="180.00" y="60.00" width="20" height="20" transform="translate(0.00 0.00) rotate(0.00 190.00 70.00)" />
  <rect x="200.00" y="60.00" width="20" height="20" transform="translate(0.00 -0.00) rotate(-0.00 210.00 70.00)" />
  <rect x="220.00" y="60.00" width="20" height="20" transform="translate(-0.00 0.00) rotate(0.00 230.00 70.00)" />
  <rect x="240.00" y="60.00" width="20" height="20" transform="translate(-0.00 -0.00) rotate(-0.00 250.00 70.00)" />
  <rect x="260.00" y="60.00" width="20" height="20" transform="translate(-0.00 0.00) rotate(-0.00 270.00 70.00)" />
  <rect x="280.00" y="60.00" width="20" height="20" transform="translate(-0.00 -0.00) rotate(-0.00 290.00 70.00)" />
  <rect x="300.00" y="60.00" width="20" height="20" transform="translate(-0.00 0.00) rotate(-0.00 310.00 70.00)" />
  <rect x="320.00" y="60.00" width="20" height="20" transform="translate(0.00 -0.00) rotate(0.00 330.00 70.00)" />
  <rect x="340.00" y="60.00" width="20" height="20" transform="translate(-0.00 0.00) rotate(-0.00 350.00 70.00)" />
  <rect x="360.00" y="60.00" width="20" height="20" transform="translate(0.00 -0.00) rotate(0.00 370.00 70.00)" />
  <rect x="380.00" y="60.00" width="20" height="20" transform="translate(0.00 -0.00) rotate(0.00 390.00 70.00)" />
  <rect x="400.00" y="60.00" width="20" height="20" transform="translate(-0.00 0.00) rotate(0.00 410.00 70.00)" />
  <rect x="420.00" y="60.00" width="20" height="20" transform="translate(0.00 0.00) rotate(-0.00 430.00 70.00)" />
  <rect x="440.00" y="60.00" width="20" height="20" transform="translate(-0.00 0.00) rotate(0.00 450.00 70.00)" />
  <rect x="460.00" y="60.00" width="20" height="20" transform="translate(0.00 -0.00) rotate(0.00 470.00 70.00)" />
  <rect x="480.00" y="60.00" width="20" height="20" transform="translate(-0.00 -0.00) rotate(0.00 490.00 70.00)" />
  <rect x="500.00" y="60.00" width="20" height="20" transform="translate(0.00 0.00) rotate(0.00 510.00 70.00)" />
  <rect x="520.00" y="60.00" width="20" height="20" transform="translate(0.00 0.00) rotate(-0.00 530.00 70.00)" />
  <rect x="540.00" y="60.00" width="20" height="20" transform="translate(0.00 0.00) rotate(-0.00 550.00 70.00)" />
  <rect x="560.00" y="60.00" width="20" height="20" transform="translate(0.00 -0.00) rotate(-0.00 570.00 70.00)" />
  <rect x="580.00" y="60.00" width="20" height="20" transform="translate(0.00 -0.00) rotate(0.00 590.00 70.00)" />
  <rect x="600.00" y="60.00" width="20" height="20" transform="translate(0.00 -0.00) rotate(0.00 610.00 70.00)" />
  <rect x="60.00" y="80.00" width="20" height="20" transform="translate(-0.02 0.02) rotate(0.07 70.00 90.00)" />
  <rect x="80.00" y="80.00" width="20" height="20" transform="translate(0.01 -0.01) rotate(0.07 90.00 90.00)" />
  <rect x="100.00" y="80.00" width="20" height="20" transform="translate(0.01 0.02) rotate(-0.01 110.00 90.00)" />
  <rect x="120.00" y="80.00" width="20" height="20" transform="translate(-0.02 -0.00) rotate(-0.02 130.00 90.00)" />
  <rect x="140.00" y="80.00" width="20" height="20" transform="translate(0.01 -0.02) rotate(0.06 150.00 90.00)" />
  <rect x="160.00" y="80.00" width="20" height="20" transform="translate(0.02 -0.02) rotate(-0.00 170.00 90.00)" />
  <rect x="180.00" y="80.00" width="20" height="20" transform="translate(-0.02 0.00) rotate(-0.00 190.00 90.00)" />
  <rect x="200.00" y="80.00" width="20" height="20" transform="translate(0.01 0.02) rotate(0.06 210.00 90.00)" />
  <rect x="220.00" y="80.00" width="20" height="20" transform="translate(0.02 0.01) rotate(-0.03 230.00 90.00)" />
  <rect x="240.00" y="80.00" width="20" height="20" transform="translate(-0.02 0.01) rotate(-0.07 250.00 90.00)" />
  <rect x="260.00" y="80.00" width="20" height="20" transform="translate(-0.00 0.01) rotate(-0.01 270.00 90.00)" />
  <rect x="280.00" y="80.00" width="20" height="20" transform="translate(-0.00 0.02) rotate(0.04 290.00 90.00)" />
  <rect x="300.00" y="80.00" width="20" height="20" transform="translate(-0.01 -0.00) rotate(-0.06 310.00 90.00)" />
  <rect x="320.00" y="80.00" width="20" height="20" transform="translate(-0.01 -0.01) rotate(-0.08 330.00 90.00)" />
  <rect x="340.00" y="80.00" width="20" height="20" transform="translate(-0.01 0.00) rotate(0.06 350.00 90.00)" />
  <rect x="360.00" y="80.00" width="20" height="20" transform="translate(-0.01 -0.02) rotate(-0.02 370.00 90.00)" />
  <rect x="380.00" y="80.00" width="20" height="20" transform="translate(-0.01 -0.02) rotate(0.02 390.00 90.00)" />
  <rect x="400.00" y="80.00" width="20" height="20" transform="translate(0.01 -0.01) rotate(0.06 410.00 90.00)" />
  <rect x="420.00" y="80.00" width="20" height="20" transform="translate(-0.02 0.01) rotate(0.04 430.00 90.00)" />
  <rect x="440.00" y="80.00" width="20" height="20" transform="translate(-0.01 0.01) rotate(-0.05 450.00 90.00)" />
  <rect x="460.00" y="80.00" width="20" height="20" transform="translate(0.02 0.02) rotate(0.02 470.00 90.00)" />
  <rect x="480.00" y="80.00" width="20" height="20" transform="translate(-0.02 0.01) rotate(0.05 490.00 90.00)" />
  <rect x="500.00" y="80.00" width="20" height="20" transform="translate(-0.02 0.00) rotate(-0.05 510.00 90.00)" />
  <rect x="520.00" y="80.00" width="20" height="20" transform="translate(0.01 0.01) rotate(-0.04 530.00 90.00)" />
  <rect x="540.00" y="80.00" width="20" height="20" transform="translate(-0.02 0.02) rotate(0.03 550.00 90.00)" />
  <rect x="560.00" y="80.00" width="20" height="20" transform="translate(-0.00 -0.00) rotate(-0.01 570.00 90.00)" />
  <rect x="580.00" y="80.00" width="20" height="20" transform="translate(0.02 -0.02) rotate(0.04 590.00 90.00)" />
  <rect x="600.00" y="80.00" width="20" height="20" transform="translate(0.02 -0.02) rotate(0.05 610.00 90.00)" />
  <rect x="60.00" y="100.00" width="20" height="20" transform="translate(0.03 0.01) rotate(0.32 70.00 110.00)" />
  <rect x="80.00" y="100.00" width="20" height="20" transform="translate(0.04 0.03) rotate(0.28 90.00 110.00)" />
  <rect x="100.00" y="100.00" width="20" height="20" transform="translate(-0.01 0.05) rotate(-0.05 110.00 110.00)" />
  <rect x="120.00" y="100.00" width="20" height="20" transform="translate(-0.05 0.01) rotate(-0.23 130.00 110.00)" />
  <rect x="140.00" y="100.00" width="20" height="20" transform="translate(-0.00 -0.03) rotate(0.27 150.00 110.00)" />
  <rect x="160.00" y="100.00" width="20" height="20" transform="translate(0.03 -0.06) rotate(0.15 170.00 110.00)" />
  <rect x="180.00" y="100.00" width="20" height="20" transform="translate(-0.02 0.01) rotate(-0.26 190.00 110.00)" />
  <rect x="200.00" y="100.00" width="20" height="20" transform="translate(-0.03 -0.01) rotate(-0.36 210.00 110.00)" />
  <rect x="220.00" y="100.00" width="20" height="20" transform="translate(-0.04 -0.04) rotate(0.29 230.00 110.00)" />
  <rect x="240.00" y="100.00" width="20" height="20" transform="translate(-0.02 0.06) rotate(0.11 250.00 110.00)" />
  <rect x="260.00" y="100.00" width="20" height="20" transform="translate(-0.04 0.03) rotate(-0.24 270.00 110.00)" />
  <rect x="280.00" y="100.00" width="20" height="20" transform="translate(-0.06 0.03) rotate(0.30 290.00 110.00)" />
  <rect x="300.00" y="100.00" width="20" height="20" transform="translate(0.06 -0.04) rotate(0.28 310.00 110.00)" />
  <rect x="320.00" y="100.00" width="20" height="20" transform="translate(-0.05 0.02) rotate(0.25 330.00 110.00)" />
  <rect x="340.00" y="100.00" width="20" height="20" transform="translate(-0.04 0.02) rotate(-0.31 350.00 110.00)" />
  <rect x="360.00" y="100.00" width="20" height="20" transform="translate(-0.06 0.00) rotate(-0.31 370.00 110.00)" />
  <rect x="380.00" y="100.00" width="20" height="20" transform="translate(-0.02 -0.01) rotate(0.01 390.00 110.00)" />
  <rect x="400.00" y="100.00" width="20" height="20" transform="translate(-0.01 -0.04) rotate(-0.37 410.00 110.00)" />
  <rect x="420.00" y="100.00" width="20" height="20" transform="translate(0.02 0.08) rotate(0.13 430.00 110.00)" />
  <rect x="440.00" y="100.00" width="20" height="20" transform="translate(0.01 -0.02) rotate(-0.05 450.00 110.00)" />
  <rect x="460.00" y="100.00" width="20" height="20" transform="translate(0.08 0.04) rotate(0.26 470.00 110.00)" />
  <rect x="480.00" y="100.00" width="20" height="20" transform="translate(0.03 -0.07) rotate(0.24 490.00 110.00)" />
  <rect x="500.00" y="100.00" width="20" height="20" transform="translate(-0.07 -0.05) rotate(-0.04 510.00 110.00)" />
  <rect x="520.00" y="100.00" width="20" height="20" transform="translate(0.01 -0.01) rotate(0.22 530.00 110.00)" />
  <rect x="540.00" y="100.00" width="20" height="20" transform="translate(-0.02 -0.05) rotate(-0.31 550.00 110.00)" />
  <rect x="560.00" y="100.00" width="20" height="20" transform="translate(0.01 -0.06) rotate(-0.04 570.00 110.00)" />
  <rect x="580.00" y="100.00" width="20" height="20" transform="translate(0.07 0.00) rotate(0.08 590.00 110.00)" />
  <rect x="600.00" y="100.00" width="20" height="20" transform="translate(0.04 -0.07) rotate(0.06 610.00 110.00)" />
  <rect x="60.00" y="120.00" width="20" height="20" transform="translate(0.04 -0.16) rotate(-0.35 70.00 130.00)" />
  <rect x="80.00" y="120.00" width="20" height="20" transform="translate(0.01 0.18) rotate(0.66 90.00 130.00)" />
  <rect x="100.00" y="120.00" width="20" height="20" transform="translate(0.02 0.08) rotate(-0.19 110.00 130.00)" />
  <rect x="120.00" y="120.00" width="20" height="20" transform="translate(0.11 0.09) rotate(-0.47 130.00 130.00)" />
  <rect x="140.00" y="120.00" width="20" height="20" transform="translate(0.13 -0.15) rotate(0.54 150.00 130.00)" />
  <rect x="160.00" y="120.00" width="20" height="20" transform="translate(-0.15 -0.04) rotate(0.20 170.00 130.00)" />
  <rect x="180.00" y="120.00" width="20" height="20" transform="translate(-0.17 -0.18) rotate(0.36 190.00 130.00)" />
  <rect x="200.00" y="120.00" width="20" height="20" transform="translate(-0.01 -0.13) rotate(0.79 210.00 130.00)" />
  <rect x="220.00" y="120.00" width="20" height="20" transform="translate(-0.13 -0.14) rotate(-0.10 230.00 130.00)" />
  <rect x="240.00" y="120.00" width="20" height="20" transform="translate(-0.18 -0.05) rotate(-0.12 250.00 130.00)" />
  <rect x="260.00" y="120.00" width="20" height="20" transform="translate(0.13 -0.05) rotate(-0.58 270.00 130.00)" />
  <rect x="280.00" y="120.00" width="20" height="20" transform="translate(0.03 -0.03) rotate(0.33 290.00 130.00)" />
  <rect x="300.00" y="120.00" width="20" height="20" transform="translate(-0.15 -0.12) rotate(-0.49 310.00 130.00)" />
  <rect x="320.00" y="120.00" width="20" height="20" transform="translate(-0.00 -0.08) rotate(0.24 330.00 130.00)" />
  <rect x="340.00" y="120.00" width="20" height="20" transform="translate(0.05 0.07) rotate(0.03 350.00 130.00)" />
  <rect x="360.00" y="120.00" width="20" height="20" transform="translate(-0.02 -0.10) rotate(0.09 370.00 130.00)" />
  <rect x="380.00" y="120.00" width="20" height="20" transform="translate(-0.11 0.12) rotate(0.17 390.00 130.00)" />
  <rect x="400.00" y="120.00" width="20" height="20" transform="translate(-0.15 -0.10) rotate(0.65 410.00 130.00)" />
  <rect x="420.00" y="120.00" width="20" height="20" transform="translate(0.05 0.06) rotate(0.51 430.00 130.00)" />
  <rect x="440.00" y="120.00" width="20" height="20" transform="translate(-0.18 0.05) rotate(-0.05 450.00 130.00)" />
  <rect x="460.00" y="120.00" width="20" height="20" transform="translate(-0.06 -0.10) rotate(0.45 470.00 130.00)" />
  <rect x="480.00" y="120.00" width="20" height="20" transform="translate(0.04 0.13) rotate(-0.32 490.00 130.00)" />
  <rect x="500.00" y="120.00" width="20" height="20" transform="translate(0.03 0.13) rotate(-0.31 510.00 130.00)" />
  <rect x="520.00" y="120.00" width="20" height="20" transform="translate(-0.16 -0.13) rotate(-0.74 530.00 130.00)" />
  <rect x="540.00" y="120.00" width="20" height="20" transform="translate(-0.00 -0.05) rotate(-0.28 550.00 130.00)" />
  <rect x="560.00" y="120.00" width="20" height="20" transform="translate(-0.05 0.10) rotate(-0.57 570.00 130.00)" />
  <rect x="580.00" y="120.00" width="20" height="20" transform="translate(0.15 -0.12) rotate(0.27 590.00 130.00)" />
  <rect x="600.00" y="120.00" width="20" height="20" transform="translate(0.01 0.18) rotate(-0.44 610.00 130.00)" />
  <rect x="60.00" y="140.00" width="20" height="20" transform="translate(-0.10 -0.26) rotate(-0.18 70.00 150.00)" />
  <rect x="80.00" y="140.00" width="20" height="20" transform="translate(0.25 -0.32) rotate(-0.13 90.00 150.00)" />
  <rect x="100.00" y="140.00" width="20" height="20" transform="translate(-0.13 0.11) rotate(-0.85 110.00 150.00)" />
  <rect x="120.00" y="140.00" width="20" height="20" transform="translate(0.01 0.18) rotate(-0.14 130.00 150.00)" />
  <rect x="140.00" y="140.00" width="20" height="20" transform="translate(0.00 0.27) rotate(0.57 150.00 150.00)" />
  <rect x="160.00" y="140.00" width="20" height="20" transform="translate(-0.23 -0.17) rotate(-1.40 170.00 150.00)" />
  <rect x="180.00" y="140.00" width="20" height="20" transform="translate(0.19 -0.32) rotate(-1.40 190.00 150.00)" />
  <rect x="200.00" y="140.00" width="20" height="20" transform="translate(-0.19 0.22) rotate(-1.45 210.00 150.00)" />
  <rect x="220.00" y="140.00" width="20" height="20" transform="translate(0.11 -0.06) rotate(-1.23 230.00 150.00)" />
  <rect x="240.00" y="140.00" width="20" height="20" transform="translate(0.02 -0.01) rotate(0.56 250.00 150.00)" />
  <rect x="260.00" y="140.00" width="20" height="20" transform="translate(-0.12 -0.31) rotate(-0.57 270.00 150.00)" />
  <rect x="280.00" y="140.00" width="20" height="20" transform="translate(-0.08 -0.04) rotate(-1.34 290.00 150.00)" />
  <rect x="300.00" y="140.00" width="20" height="20" transform="translate(-0.03 0.25) rotate(-0.07 310.00 150.00)" />
  <rect x="320.00" y="140.00" width="20" height="20" transform="translate(0.12 0.28) rotate(0.08 330.00 150.00)" />
  <rect x="340.00" y="140.00" width="20" height="20" transform="translate(0.31 0.17) rotate(-1.15 350.00 150.00)" />
  <rect x="360.00" y="140.00" width="20" height="20" transform="translate(0.08 0.02) rotate(-0.40 370.00 150.00)" />
  <rect x="380.00" y="140.00" width="20" height="20" transform="translate(0.19 -0.29) rotate(0.92 390.00 150.00)" />
  <rect x="400.00" y="140.00" width="20" height="20" transform="translate(-0.06 0.33) rotate(1.45 410.00 150.00)" />
  <rect x="420.00" y="140.00" width="20" height="20" transform="translate(-0.13 -0.18) rotate(-0.76 430.00 150.00)" />
  <rect x="440.00" y="140.00" width="20" height="20" transform="translate(-0.02 -0.25) rotate(-1.17 450.00 150.00)" />
  <rect x="460.00" y="140.00" width="20" height="20" transform="translate(-0.15 0.02) rotate(-0.35 470.00 150.00)" />
  <rect x="480.00" y="140.00" width="20" height="20" transform="translate(-0.03 0.02) rotate(-0.93 490.00 150.00)" />
  <rect x="500.00" y="140.00" width="20" height="20" transform="translate(-0.25 0.05) rotate(0.41 510.00 150.00)" />
  <rect x="520.00" y="140.00" width="20" height="20" transform="translate(-0.07 -0.01) rotate(0.53 530.00 150.00)" />
  <rect x="540.00" y="140.00" width="20" height="20" transform="translate(0.21 -0.23) rotate(0.28 550.00 150.00)" />
  <rect x="560.00" y="140.00" width="20" height="20" transform="translate(-0.07 0.06) rotate(0.57 570.00 150.00)" />
  <rect x="580.00" y="140.00" width="20" height="20" transform="translate(0.30 0.27) rotate(-1.27 590.00 150.00)" />
  <rect x="600.00" y="140.00" width="20" height="20" transform="translate(0.33 -0.08) rotate(0.65 610.00 150.00)" />
  <rect x="60.00" y="160.00" width="20" height="20" transform="translate(0.13 -0.41) rotate(-0.90 70.00 170.00)" />
  <rect x="80.00" y="160.00" width="20" height="20" transform="translate(0.03 0.00) rotate(-2.01 90.00 170.00)" />
  <rect x="100.00" y="160.00" width="20" height="20" transform="translate(0.39 -0.02) rotate(-0.56 110.00 170.00)" />
  <rect x="120.00" y="160.00" width="20" height="20" transform="translate(-0.48 -0.41) rotate(-1.34 130.00 170.00)" />
  <rect x="140.00" y="160.00" width="20" height="20" transform="translate(0.47 0.38) rotate(1.58 150.00 170.00)" />
  <rect x="160.00" y="160.00" width="20" height="20" transform="translate(0.07 0.19) rotate(-1.15 170.00 170.00)" />
  <rect x="180.00" y="160.00" width="20" height="20" transform="translate(0.37 0.13) rotate(-1.72 190.00 170.00)" />
  <rect x="200.00" y="160.00" width="20" height="20" transform="translate(0.30 0.37) rotate(-1.68 210.00 170.00)" />
  <rect x="220.00" y="160.00" width="20" height="20" transform="translate(0.44 -0.03) rotate(-2.12 230.00 170.00)" />
  <rect x="240.00" y="160.00" width="20" height="20" transform="translate(-0.17 0.30) rotate(0.09 250.00 170.00)" />
  <rect x="260.00" y="160.00" width="20" height="20" transform="translate(-0.41 0.38) rotate(-0.35 270.00 170.00)" />
  <rect x="280.00" y="160.00" width="20" height="20" transform="translate(-0.48 -0.22) rotate(0.52 290.00 170.00)" />
  <rect x="300.00" y="160.00" width="20" height="20" transform="translate(-0.51 -0.39) rotate(-1.04 310.00 170.00)" />
  <rect x="320.00" y="160.00" width="20" height="20" transform="translate(-0.08 0.15) rotate(-0.86 330.00 170.00)" />
  <rect x="340.00" y="160.00" width="20" height="20" transform="translate(0.03 -0.15) rotate(2.15 350.00 170.00)" />
  <rect x="360.00" y="160.00" width="20" height="20" transform="translate(-0.29 -0.48) rotate(-0.71 370.00 170.00)" />
  <rect x="380.00" y="160.00" width="20" height="20" transform="translate(0.21 -0.13) rotate(2.17 390.00 170.00)" />
  <rect x="400.00" y="160.00" width="20" height="20" transform="translate(0.48 0.06) rotate(-0.82 410.00 170.00)" />
  <rect x="420.00" y="160.00" width="20" height="20" transform="translate(-0.29 -0.29) rotate(-0.90 430.00 170.00)" />
  <rect x="440.00" y="160.00" width="20" height="20" transform="translate(0.32 0.19) rotate(1.36 450.00 170.00)" />
  <rect x="460.00" y="160.00" width="20" height="20" transform="translate(-0.47 0.16) rotate(0.18 470.00 170.00)" />
  <rect x="480.00" y="160.00" width="20" height="20" transform="translate(0.06 -0.44) rotate(-1.51 490.00 170.00)" />
  <rect x="500.00" y="160.00" width="20" height="20" transform="translate(0.32 -0.20) rotate(-1.09 510.00 170.00)" />
  <rect x="520.00" y="160.00" width="20" height="20" transform="translate(-0.19 0.36) rotate(-1.96 530.00 170.00)" />
  <rect x="540.00" y="160.00" width="20" height="20" transform="translate(-0.47 0.16) rotate(-0.20 550.00 170.00)" />
  <rect x="560.00" y="160.00" width="20" height="20" transform="translate(-0.01 0.38) rotate(1.76 570.00 170.00)" />
  <rect x="580.00" y="160.00" width="20" height="20" transform="translate(-0.16 -0.31) rotate(0.26 590.00 170.00)" />
  <rect x="600.00" y="160.00" width="20" height="20" transform="translate(0.49 0.20) rotate(-0.09 610.00 170.00)" />
  <rect x="60.00" y="180.00" width="20" height="20" transform="translate(-0.11 -0.56) rotate(-2.61 70.00 190.00)" />
  <rect x="80.00" y="180.00" width="20" height="20" transform="translate(0.52 0.56) rotate(-2.55 90.00 190.00)" />
  <rect x="100.00" y="180.00" width="20" height="20" transform="translate(-0.34 0.10) rotate(-2.97 110.00 190.00)" />
  <rect x="120.00" y="180.00" width="20" height="20" transform="translate(0.56 0.33) rotate(-2.66 130.00 190.00)" />
  <rect x="140.00" y="180.00" width="20" height="20" transform="translate(-0.29 0.23) rotate(2.00 150.00 190.00)" />
  <rect x="160.00" y="180.00" width="20" height="20" transform="translate(0.29 0.58) rotate(2.64 170.00 190.00)" />
  <rect x="180.00" y="180.00" width="20" height="20" transform="translate(0.36 0.10) rotate(-3.11 190.00 190.00)" />
  <rect x="200.00" y="180.00" width="20" height="20" transform="translate(0.27 0.55) rotate(-0.84 210.00 190.00)" />
  <rect x="220.00" y="180.00" width="20" height="20" transform="translate(0.46 0.20) rotate(-2.50 230.00 190.00)" />
  <rect x="240.00" y="180.00" width="20" height="20" transform="translate(0.66 -0.62) rotate(1.10 250.00 190.00)" />
  <rect x="260.00" y="180.00" width="20" height="20" transform="translate(0.56 -0.66) rotate(-0.83 270.00 190.00)" />
  <rect x="280.00" y="180.00" width="20" height="20" transform="translate(0.28 -0.42) rotate(2.57 290.00 190.00)" />
  <rect x="300.00" y="180.00" width="20" height="20" transform="translate(-0.70 -0.08) rotate(-0.42 310.00 190.00)" />
  <rect x="320.00" y="180.00" width="20" height="20" transform="translate(0.19 0.68) rotate(-2.49 330.00 190.00)" />
  <rect x="340.00" y="180.00" width="20" height="20" transform="translate(-0.39 -0.36) rotate(1.47 350.00 190.00)" />
  <rect x="360.00" y="180.00" width="20" height="20" transform="translate(-0.65 -0.44) rotate(2.01 370.00 190.00)" />
  <rect x="380.00" y="180.00" width="20" height="20" transform="translate(0.34 -0.22) rotate(2.23 390.00 190.00)" />
  <rect x="400.00" y="180.00" width="20" height="20" transform="translate(-0.52 -0.65) rotate(-2.75 410.00 190.00)" />
  <rect x="420.00" y="180.00" width="20" height="20" transform="translate(-0.23 0.16) rotate(2.68 430.00 190.00)" />
  <rect x="440.00" y="180.00" width="20" height="20" transform="translate(0.06 0.32) rotate(-1.21 450.00 190.00)" />
  <rect x="460.00" y="180.00" width="20" height="20" transform="translate(-0.64 0.66) rotate(-3.24 470.00 190.00)" />
  <rect x="480.00" y="180.00" width="20" height="20" transform="translate(0.61 -0.28) rotate(-0.80 490.00 190.00)" />
  <rect x="500.00" y="180.00" width="20" height="20" transform="translate(-0.49 -0.08) rotate(-2.95 510.00 190.00)" />
  <rect x="520.00" y="180.00" width="20" height="20" transform="translate(-0.18 0.54) rotate(1.31 530.00 190.00)" />
  <rect x="540.00" y="180.00" width="20" height="20" transform="translate(0.61 0.35) rotate(-0.17 550.00 190.00)" />
  <rect x="560.00" y="180.00" width="20" height="20" transform="translate(-0.31 -0.55) rotate(-2.96 570.00 190.00)" />
  <rect x="580.00" y="180.00" width="20" height="20" transform="translate(-0.54 0.61) rotate(3.04 590.00 190.00)" />
  <rect x="600.00" y="180.00" width="20" height="20" transform="translate(-0.59 -0.32) rotate(1.41 610.00 190.00)" />
  <rect x="60.00" y="200.00" width="20" height="20" transform="translate(-0.65 0.75) rotate(3.53 70.00 210.00)" />
  <rect x="80.00" y="200.00" width="20" height="20" transform="translate(-0.67 0.54) rotate(0.74 90.00 210.00)" />
  <rect x="100.00" y="200.00" width="20" height="20" transform="translate(0.91 0.16) rotate(2.79 110.00 210.00)" />
  <rect x="120.00" y="200.00" width="20" height="20" transform="translate(-0.09 0.78) rotate(-0.10 130.00 210.00)" />
  <rect x="140.00" y="200.00" width="20" height="20" transform="translate(0.86 -0.32) rotate(-1.43 150.00 210.00)" />
  <rect x="160.00" y="200.00" width="20" height="20" transform="translate(0.26 -0.54) rotate(3.70 170.00 210.00)" />
  <rect x="180.00" y="200.00" width="20" height="20" transform="translate(-0.92 -0.05) rotate(3.39 190.00 210.00)" />
  <rect x="200.00" y="200.00" width="20" height="20" transform="translate(0.80 0.62) rotate(4.10 210.00 210.00)" />
  <rect x="220.00" y="200.00" width="20" height="20" transform="translate(0.57 -1.01) rotate(-1.55 230.00 210.00)" />
  <rect x="240.00" y="200.00" width="20" height="20" transform="translate(0.72 -0.19) rotate(2.03 250.00 210.00)" />
  <rect x="260.00" y="200.00" width="20" height="20" transform="translate(-0.47 -0.09) rotate(-3.14 270.00 210.00)" />
  <rect x="280.00" y="200.00" width="20" height="20" transform="translate(-0.10 0.12) rotate(3.60 290.00 210.00)" />
  <rect x="300.00" y="200.00" width="20" height="20" transform="translate(0.86 0.47) rotate(-1.26 310.00 210.00)" />
  <rect x="320.00" y="200.00" width="20" height="20" transform="translate(0.62 -0.12) rotate(0.03 330.00 210.00)" />
  <rect x="340.00" y="200.00" width="20" height="20" transform="translate(-0.09 0.47) rotate(-3.06 350.00 210.00)" />
  <rect x="360.00" y="200.00" width="20" height="20" transform="translate(-0.78 -0.85) rotate(3.26 370.00 210.00)" />
  <rect x="380.00" y="200.00" width="20" height="20" transform="translate(-0.37 0.46) rotate(-3.11 390.00 210.00)" />
  <rect x="400.00" y="200.00" width="20" height="20" transform="translate(-0.62 -0.65) rotate(-0.89 410.00 210.00)" />
  <rect x="420.00" y="200.00" width="20" height="20" transform="translate(-0.58 -0.61) rotate(1.25 430.00 210.00)" />
  <rect x="440.00" y="200.00" width="20" height="20" transform="translate(-0.70 -0.06) rotate(-3.38 450.00 210.00)" />
  <rect x="460.00" y="200.00" width="20" height="20" transform="translate(0.62 -0.61) rotate(-2.85 470.00 210.00)" />
  <rect x="480.00" y="200.00" width="20" height="20" transform="translate(-0.66 -0.82) rotate(-3.79 490.00 210.00)" />
  <rect x="500.00" y="200.00" width="20" height="20" transform="translate(0.88 -0.55) rotate(2.82 510.00 210.00)" />
  <rect x="520.00" y="200.00" width="20" height="20" transform="translate(0.12 0.09) rotate(2.86 530.00 210.00)" />
  <rect x="540.00" y="200.00" width="20" height="20" transform="translate(0.38 0.14) rotate(2.29 550.00 210.00)" />
  <rect x="560.00" y="200.00" width="20" height="20" transform="translate(-0.08 -0.33) rotate(-0.58 570.00 210.00)" />
  <rect x="580.00" y="200.00" width="20" height="20" transform="translate(0.38 -0.96) rotate(0.66 590.00 210.00)" />
  <rect x="600.00" y="200.00" width="20" height="20" transform="translate(-0.62 -0.03) rotate(-3.46 610.00 210.00)" />
  <rect x="60.00" y="220.00" width="20" height="20" transform="translate(-0.94 1.03) rotate(1.94 70.00 230.00)" />
  <rect x="80.00" y="220.00" width="20" height="20" transform="translate(-0.34 -0.45) rotate(5.47 90.00 230.00)" />
  <rect x="100.00" y="220.00" width="20" height="20" transform="translate(-1.20 -0.22) rotate(-1.43 110.00 230.00)" />
  <rect x="120.00" y="220.00" width="20" height="20" transform="translate(0.63 -1.01) rotate(-4.95 130.00 230.00)" />
  <rect x="140.00" y="220.00" width="20" height="20" transform="translate(1.05 -0.17) rotate(-0.15 150.00 230.00)" />
  <rect x="160.00" y="220.00" width="20" height="20" transform="translate(0.19 0.21) rotate(0.67 170.00 230.00)" />
  <rect x="180.00" y="220.00" width="20" height="20" transform="translate(0.35 -0.52) rotate(-2.79 190.00 230.00)" />
  <rect x="200.00" y="220.00" width="20" height="20" transform="translate(-0.16 -1.27) rotate(1.42 210.00 230.00)" />
  <rect x="220.00" y="220.00" width="20" height="20" transform="translate(-1.28 0.64) rotate(-4.79 230.00 230.00)" />
  <rect x="240.00" y="220.00" width="20" height="20" transform="translate(-1.06 -0.04) rotate(-4.05 250.00 230.00)" />
  <rect x="260.00" y="220.00" width="20" height="20" transform="translate(-0.38 0.36) rotate(2.70 270.00 230.00)" />
  <rect x="280.00" y="220.00" width="20" height="20" transform="translate(0.90 -0.78) rotate(-0.20 290.00 230.00)" />
  <rect x="300.00" y="220.00" width="20" height="20" transform="translate(1.02 -0.33) rotate(3.00 310.00 230.00)" />
  <rect x="320.00" y="220.00" width="20" height="20" transform="translate(1.06 -0.71) rotate(-2.55 330.00 230.00)" />
  <rect x="340.00" y="220.00" width="20" height="20" transform="translate(-0.39 -0.90) rotate(1.97 350.00 230.00)" />
  <rect x="360.00" y="220.00" width="20" height="20" transform="translate(-0.63 -1.05) rotate(2.01 370.00 230.00)" />
  <rect x="380.00" y="220.00" width="20" height="20" transform="translate(0.84 0.33) rotate(-4.58 390.00 230.00)" />
  <rect x="400.00" y="220.00" width="20" height="20" transform="translate(0.81 -0.47) rotate(-4.40 410.00 230.00)" />
  <rect x="420.00" y="220.00" width="20" height="20" transform="translate(-0.54 0.96) rotate(1.91 430.00 230.00)" />
  <rect x="440.00" y="220.00" width="20" height="20" transform="translate(-0.78 -0.55) rotate(-0.75 450.00 230.00)" />
  <rect x="460.00" y="220.00" width="20" height="20" transform="translate(0.08 0.67) rotate(4.16 470.00 230.00)" />
  <rect x="480.00" y="220.00" width="20" height="20" transform="translate(0.49 0.93) rotate(3.85 490.00 230.00)" />
  <rect x="500.00" y="220.00" width="20" height="20" transform="translate(0.30 -1.29) rotate(3.49 510.00 230.00)" />
  <rect x="520.00" y="220.00" width="20" height="20" transform="translate(0.60 -1.00) rotate(-3.61 530.00 230.00)" />
  <rect x="540.00" y="220.00" width="20" height="20" transform="translate(0.61 -1.01) rotate(2.69 550.00 230.00)" />
  <rect x="560.00" y="220.00" width="20" height="20" transform="translate(0.36 -0.20) rotate(4.91 570.00 230.00)" />
  <rect x="580.00" y="220.00" width="20" height="20" transform="translate(1.26 -1.11) rotate(0.44 590.00 230.00)" />
  <rect x="600.00" y="220.00" width="20" height="20" transform="translate(-0.94 0.74) rotate(2.78 610.00 230.00)" />
  <rect x="60.00" y="240.00" width="20" height="20" transform="translate(-1.17 -0.05) rotate(5.12 70.00 250.00)" />
  <rect x="80.00" y="240.00" width="20" height="20" transform="translate(-1.11 -1.03) rotate(6.47 90.00 250.00)" />
  <rect x="100.00" y="240.00" width="20" height="20" transform="translate(-0.01 -0.65) rotate(-5.84 110.00 250.00)" />
  <rect x="120.00" y="240.00" width="20" height="20" transform="translate(-0.20 0.29) rotate(6.53 130.00 250.00)" />
  <rect x="140.00" y="240.00" width="20" height="20" transform="translate(0.16 -0.04) rotate(1.74 150.00 250.00)" />
  <rect x="160.00" y="240.00" width="20" height="20" transform="translate(-1.50 -1.67) rotate(-5.69 170.00 250.00)" />
  <rect x="180.00" y="240.00" width="20" height="20" transform="translate(1.39 0.85) rotate(-1.67 190.00 250.00)" />
  <rect x="200.00" y="240.00" width="20" height="20" transform="translate(-0.71 1.19) rotate(1.47 210.00 250.00)" />
  <rect x="220.00" y="240.00" width="20" height="20" transform="translate(1.04 0.57) rotate(0.54 230.00 250.00)" />
  <rect x="240.00" y="240.00" width="20" height="20" transform="translate(1.48 -1.52) rotate(-3.29 250.00 250.00)" />
  <rect x="260.00" y="240.00" width="20" height="20" transform="translate(-0.03 -1.31) rotate(5.70 270.00 250.00)" />
  <rect x="280.00" y="240.00" width="20" height="20" transform="translate(1.21 0.71) rotate(0.35 290.00 250.00)" />
  <rect x="300.00" y="240.00" width="20" height="20" transform="translate(1.37 1.32) rotate(6.61 310.00 250.00)" />
  <rect x="320.00" y="240.00" width="20" height="20" transform="translate(1.43 -0.95) rotate(-6.58 330.00 250.00)" />
  <rect x="340.00" y="240.00" width="20" height="20" transform="translate(-1.00 -0.76) rotate(-6.02 350.00 250.00)" />
  <rect x="360.00" y="240.00" width="20" height="20" transform="translate(-0.50 0.40) rotate(-2.76 370.00 250.00)" />
  <rect x="380.00" y="240.00" width="20" height="20" transform="translate(0.49 -1.32) rotate(2.58 390.00 250.00)" />
  <rect x="400.00" y="240.00" width="20" height="20" transform="translate(-0.99 -0.79) rotate(0.44 410.00 250.00)" />
  <rect x="420.00" y="240.00" width="20" height="20" transform="translate(1.55 -0.75) rotate(-5.45 430.00 250.00)" />
  <rect x="440.00" y="240.00" width="20" height="20" transform="translate(1.64 -0.64) rotate(-0.83 450.00 250.00)" />
  <rect x="460.00" y="240.00" width="20" height="20" transform="translate(-1.24 1.06) rotate(-3.54 470.00 250.00)" />
  <rect x="480.00" y="240.00" width="20" height="20" transform="translate(0.94 -0.50) rotate(-0.20 490.00 250.00)" />
  <rect x="500.00" y="240.00" width="20" height="20" transform="translate(-0.52 -0.99) rotate(1.41 510.00 250.00)" />
  <rect x="520.00" y="240.00" width="20" height="20" transform="translate(0.28 0.45) rotate(-4.08 530.00 250.00)" />
  <rect x="540.00" y="240.00" width="20" height="20" transform="translate(-0.00 1.44) rotate(0.91 550.00 250.00)" />
  <rect x="560.00" y="240.00" width="20" height="20" transform="translate(1.48 0.64) rotate(1.85 570.00 250.00)" />
  <rect x="580.00" y="240.00" width="20" height="20" transform="translate(0.32 -0.73) rotate(6.33 590.00 250.00)" />
  <rect x="600.00" y="240.00" width="20" height="20" transform="translate(-1.17 1.07) rotate(2.04 610.00 250.00)" />
  <rect x="60.00" y="260.00" width="20" height="20" transform="translate(1.82 1.04) rotate(-1.43 70.00 270.00)" />
  <rect x="80.00" y="260.00" width="20" height="20" transform="translate(1.55 -0.85) rotate(-9.23 90.00 270.00)" />
  <rect x="100.00" y="260.00" width="20" height="20" transform="translate(-0.01 0.36) rotate(8.07 110.00 270.00)" />
  <rect x="120.00" y="260.00" width="20" height="20" transform="translate(-1.45 -1.14) rotate(0.94 130.00 270.00)" />
  <rect x="140.00" y="260.00" width="20" height="20" transform="translate(1.96 -0.24) rotate(8.67 150.00 270.00)" />
  <rect x="160.00" y="260.00" width="20" height="20" transform="translate(-1.50 0.28) rotate(4.19 170.00 270.00)" />
  <rect x="180.00" y="260.00" width="20" height="20" transform="translate(-0.38 -1.25) rotate(-4.17 190.00 270.00)" />
  <rect x="200.00" y="260.00" width="20" height="20" transform="translate(1.76 -1.95) rotate(-1.25 210.00 270.00)" />
  <rect x="220.00" y="260.00" width="20" height="20" transform="translate(-1.83 1.58) rotate(3.84 230.00 270.00)" />
  <rect x="240.00" y="260.00" width="20" height="20" transform="translate(0.42 1.96) rotate(6.51 250.00 270.00)" />
  <rect x="260.00" y="260.00" width="20" height="20" transform="translate(0.98 0.76) rotate(-1.26 270.00 270.00)" />
  <rect x="280.00" y="260.00" width="20" height="20" transform="translate(0.85 1.21) rotate(8.98 290.00 270.00)" />
  <rect x="300.00" y="260.00" width="20" height="20" transform="translate(-0.27 1.18) rotate(1.75 310.00 270.00)" />
  <rect x="320.00" y="260.00" width="20" height="20" transform="translate(-1.10 -2.06) rotate(-0.68 330.00 270.00)" />
  <rect x="340.00" y="260.00" width="20" height="20" transform="translate(-2.03 -1.63) rotate(-9.24 350.00 270.00)" />
  <rect x="360.00" y="260.00" width="20" height="20" transform="translate(0.11 1.91) rotate(3.06 370.00 270.00)" />
  <rect x="380.00" y="260.00" width="20" height="20" transform="translate(0.24 -1.16) rotate(-4.08 390.00 270.00)" />
  <rect x="400.00" y="260.00" width="20" height="20" transform="translate(-0.48 -1.75) rotate(-1.67 410.00 270.00)" />
  <rect x="420.00" y="260.00" width="20" height="20" transform="translate(0.01 -0.79) rotate(4.92 430.00 270.00)" />
  <rect x="440.00" y="260.00" width="20" height="20" transform="translate(-0.60 0.22) rotate(8.52 450.00 270.00)" />
  <rect x="460.00" y="260.00" width="20" height="20" transform="translate(0.27 0.62) rotate(-5.50 470.00 270.00)" />
  <rect x="480.00" y="260.00" width="20" height="20" transform="translate(1.58 -2.06) rotate(-8.77 490.00 270.00)" />
  <rect x="500.00" y="260.00" width="20" height="20" transform="translate(-1.55 -0.61) rotate(-2.94 510.00 270.00)" />
  <rect x="520.00" y="260.00" width="20" height="20" transform="translate(-1.39 1.72) rotate(6.75 530.00 270.00)" />
  <rect x="540.00" y="260.00" width="20" height="20" transform="translate(-1.08 -1.81) rotate(-6.89 550.00 270.00)" />
  <rect x="560.00" y="260.00" width="20" height="20" transform="translate(-1.07 1.07) rotate(4.09 570.00 270.00)" />
  <rect x="580.00" y="260.00" width="20" height="20" transform="translate(0.57 0.28) rotate(2.20 590.00 270.00)" />
  <rect x="600.00" y="260.00" width="20" height="20" transform="translate(-0.05 0.28) rotate(-6.21 610.00 270.00)" />
  <rect x="60.00" y="280.00" width="20" height="20" transform="translate(0.50 -0.86) rotate(-1.79 70.00 290.00)" />
  <rect x="80.00" y="280.00" width="20" height="20" transform="translate(-2.19 -1.10) rotate(-2.63 90.00 290.00)" />
  <rect x="100.00" y="280.00" width="20" height="20" transform="translate(0.46 -1.27) rotate(-4.05 110.00 290.00)" />
  <rect x="120.00" y="280.00" width="20" height="20" transform="translate(-0.30 1.99) rotate(4.79 130.00 290.00)" />
  <rect x="140.00" y="280.00" width="20" height="20" transform="translate(-0.15 1.92) rotate(-2.08 150.00 290.00)" />
  <rect x="160.00" y="280.00" width="20" height="20" transform="translate(-0.54 -1.81) rotate(-8.76 170.00 290.00)" />
  <rect x="180.00" y="280.00" width="20" height="20" transform="translate(-0.33 1.85) rotate(1.49 190.00 290.00)" />
  <rect x="200.00" y="280.00" width="20" height="20" transform="translate(0.53 -1.92) rotate(-5.65 210.00 290.00)" />
  <rect x="220.00" y="280.00" width="20" height="20" transform="translate(0.84 1.77) rotate(-3.48 230.00 290.00)" />
  <rect x="240.00" y="280.00" width="20" height="20" transform="translate(2.46 -1.72) rotate(3.73 250.00 290.00)" />
  <rect x="260.00" y="280.00" width="20" height="20" transform="translate(0.86 1.09) rotate(8.92 270.00 290.00)" />
  <rect x="280.00" y="280.00" width="20" height="20" transform="translate(0.74 -0.55) rotate(-10.67 290.00 290.00)" />
  <rect x="300.00" y="280.00" width="20" height="20" transform="translate(0.13 1.97) rotate(-0.49 310.00 290.00)" />
  <rect x="320.00" y="280.00" width="20" height="20" transform="translate(0.50 -1.72) rotate(3.72 330.00 290.00)" />
  <rect x="340.00" y="280.00" width="20" height="20" transform="translate(2.29 -1.75) rotate(1.62 350.00 290.00)" />
  <rect x="360.00" y="280.00" width="20" height="20" transform="translate(-1.06 0.10) rotate(-0.81 370.00 290.00)" />
  <rect x="380.00" y="280.00" width="20" height="20" transform="translate(-1.33 -2.38) rotate(-4.05 390.00 290.00)" />
  <rect x="400.00" y="280.00" width="20" height="20" transform="translate(0.87 0.02) rotate(-3.23 410.00 290.00)" />
  <rect x="420.00" y="280.00" width="20" height="20" transform="translate(-1.08 -0.97) rotate(1.11 430.00 290.00)" />
  <rect x="440.00" y="280.00" width="20" height="20" transform="translate(1.87 0.72) rotate(2.95 450.00 290.00)" />
  <rect x="460.00" y="280.00" width="20" height="20" transform="translate(-0.13 -1.73) rotate(8.99 470.00 290.00)" />
  <rect x="480.00" y="280.00" width="20" height="20" transform="translate(-1.31 -0.81) rotate(-5.40 490.00 290.00)" />
  <rect x="500.00" y="280.00" width="20" height="20" transform="translate(1.63 -1.94) rotate(-2.70 510.00 290.00)" />
  <rect x="520.00" y="280.00" width="20" height="20" transform="translate(-0.37 0.26) rotate(-4.05 530.00 290.00)" />
  <rect x="540.00" y="280.00" width="20" height="20" transform="translate(0.02 2.04) rotate(-4.36 550.00 290.00)" />
  <rect x="560.00" y="280.00" width="20" height="20" transform="translate(-1.23 2.03) rotate(10.09 570.00 290.00)" />
  <rect x="580.00" y="280.00" width="20" height="20" transform="translate(1.95 -0.17) rotate(1.27 590.00 290.00)" />
  <rect x="600.00" y="280.00" width="20" height="20" transform="translate(-2.38 2.34) rotate(-9.39 610.00 290.00)" />
  <rect x="60.00" y="300.00" width="20" height="20" transform="translate(1.49 -1.04) rotate(-2.23 70.00 310.00)" />
  <rect x="80.00" y="300.00" width="20" height="20" transform="translate(-1.04 -1.85) rotate(-4.42 90.00 310.00)" />
  <rect x="100.00" y="300.00" width="20" height="20" transform="translate(2.37 2.45) rotate(-6.69 110.00 310.00)" />
  <rect x="120.00" y="300.00" width="20" height="20" transform="translate(-2.03 2.14) rotate(-11.31 130.00 310.00)" />
  <rect x="140.00" y="300.00" width="20" height="20" transform="translate(-1.63 -2.32) rotate(-11.29 150.00 310.00)" />
  <rect x="160.00" y="300.00" width="20" height="20" transform="translate(-0.27 -0.89) rotate(12.70 170.00 310.00)" />
  <rect x="180.00" y="300.00" width="20" height="20" transform="translate(0.94 -0.39) rotate(-12.84 190.00 310.00)" />
  <rect x="200.00" y="300.00" width="20" height="20" transform="translate(-2.74 2.14) rotate(-6.25 210.00 310.00)" />
  <rect x="220.00" y="300.00" width="20" height="20" transform="translate(-0.31 -2.43) rotate(-3.17 230.00 310.00)" />
  <rect x="240.00" y="300.00" width="20" height="20" transform="translate(1.32 -1.46) rotate(-12.75 250.00 310.00)" />
  <rect x="260.00" y="300.00" width="20" height="20" transform="translate(1.66 -1.22) rotate(-9.95 270.00 310.00)" />
  <rect x="280.00" y="300.00" width="20" height="20" transform="translate(-2.64 -2.08) rotate(-11.79 290.00 310.00)" />
  <rect x="300.00" y="300.00" width="20" height="20" transform="translate(-2.26 0.24) rotate(-6.91 310.00 310.00)" />
  <rect x="320.00" y="300.00" width="20" height="20" transform="translate(2.84 0.16) rotate(-12.59 330.00 310.00)" />
  <rect x="340.00" y="300.00" width="20" height="20" transform="translate(1.32 0.62) rotate(8.76 350.00 310.00)" />
  <rect x="360.00" y="300.00" width="20" height="20" transform="translate(2.15 -2.84) rotate(-3.32 370.00 310.00)" />
  <rect x="380.00" y="300.00" width="20" height="20" transform="translate(-1.42 0.83) rotate(11.97 390.00 310.00)" />
  <rect x="400.00" y="300.00" width="20" height="20" transform="translate(-2.19 -2.66) rotate(-11.36 410.00 310.00)" />
  <rect x="420.00" y="300.00" width="20" height="20" transform="translate(1.03 -1.91) rotate(3.75 430.00 310.00)" />
  <rect x="440.00" y="300.00" width="20" height="20" transform="translate(-0.17 -0.20) rotate(3.52 450.00 310.00)" />
  <rect x="460.00" y="300.00" width="20" height="20" transform="translate(0.23 2.83) rotate(0.15 470.00 310.00)" />
  <rect x="480.00" y="300.00" width="20" height="20" transform="translate(-2.03 2.95) rotate(-8.12 490.00 310.00)" />
  <rect x="500.00" y="300.00" width="20" height="20" transform="translate(0.58 -0.78) rotate(0.30 510.00 310.00)" />
  <rect x="520.00" y="300.00" width="20" height="20" transform="translate(-0.39 0.46) rotate(3.52 530.00 310.00)" />
  <rect x="540.00" y="300.00" width="20" height="20" transform="translate(-2.16 -0.11) rotate(-0.56 550.00 310.00)" />
  <rect x="560.00" y="300.00" width="20" height="20" transform="translate(0.38 -1.68) rotate(11.87 570.00 310.00)" />
  <rect x="580.00" y="300.00" width="20" height="20" transform="translate(1.81 -0.93) rotate(9.57 590.00 310.00)" />
  <rect x="600.00" y="300.00" width="20" height="20" transform="translate(-1.74 1.01) rotate(8.47 610.00 310.00)" />
  <rect x="60.00" y="320.00" width="20" height="20" transform="translate(0.86 -3.33) rotate(15.55 70.00 330.00)" />
  <rect x="80.00" y="320.00" width="20" height="20" transform="translate(3.25 -2.31) rotate(-15.00 90.00 330.00)" />
  <rect x="100.00" y="320.00" width="20" height="20" transform="translate(-0.53 -0.19) rotate(-11.64 110.00 330.00)" />
  <rect x="120.00" y="320.00" width="20" height="20" transform="translate(-1.05 2.80) rotate(-4.14 130.00 330.00)" />
  <rect x="140.00" y="320.00" width="20" height="20" transform="translate(-1.65 -0.13) rotate(-12.99 150.00 330.00)" />
  <rect x="160.00" y="320.00" width="20" height="20" transform="translate(2.72 3.06) rotate(-9.77 170.00 330.00)" />
  <rect x="180.00" y="320.00" width="20" height="20" transform="translate(1.55 3.07) rotate(13.16 190.00 330.00)" />
  <rect x="200.00" y="320.00" width="20" height="20" transform="translate(0.32 -0.53) rotate(-14.82 210.00 330.00)" />
  <rect x="220.00" y="320.00" width="20" height="20" transform="translate(-2.04 -1.96) rotate(5.88 230.00 330.00)" />
  <rect x="240.00" y="320.00" width="20" height="20" transform="translate(-2.78 2.60) rotate(-9.70 250.00 330.00)" />
  <rect x="260.00" y="320.00" width="20" height="20" transform="translate(-0.77 -3.32) rotate(-14.48 270.00 330.00)" />
  <rect x="280.00" y="320.00" width="20" height="20" transform="translate(1.35 2.82) rotate(8.73 290.00 330.00)" />
  <rect x="300.00" y="320.00" width="20" height="20" transform="translate(-1.43 -2.53) rotate(-4.58 310.00 330.00)" />
  <rect x="320.00" y="320.00" width="20" height="20" transform="translate(-2.20 -1.07) rotate(14.12 330.00 330.00)" />
  <rect x="340.00" y="320.00" width="20" height="20" transform="translate(3.21 -2.51) rotate(11.51 350.00 330.00)" />
  <rect x="360.00" y="320.00" width="20" height="20" transform="translate(3.24 3.09) rotate(-9.22 370.00 330.00)" />
  <rect x="380.00" y="320.00" width="20" height="20" transform="translate(-0.99 0.54) rotate(-11.55 390.00 330.00)" />
  <rect x="400.00" y="320.00" width="20" height="20" transform="translate(-2.27 0.65) rotate(2.38 410.00 330.00)" />
  <rect x="420.00" y="320.00" width="20" height="20" transform="translate(0.89 -1.42) rotate(5.88 430.00 330.00)" />
  <rect x="440.00" y="320.00" width="20" height="20" transform="translate(-0.26 1.54) rotate(14.75 450.00 330.00)" />
  <rect x="460.00" y="320.00" width="20" height="20" transform="translate(-3.48 0.67) rotate(-3.41 470.00 330.00)" />
  <rect x="480.00" y="320.00" width="20" height="20" transform="translate(-1.43 1.85) rotate(3.66 490.00 330.00)" />
  <rect x="500.00" y="320.00" width="20" height="20" transform="translate(0.52 -1.73) rotate(-9.32 510.00 330.00)" />
  <rect x="520.00" y="320.00" width="20" height="20" transform="translate(0.99 1.51) rotate(8.45 530.00 330.00)" />
  <rect x="540.00" y="320.00" width="20" height="20" transform="translate(1.71 -0.78) rotate(-10.87 550.00 330.00)" />
  <rect x="560.00" y="320.00" width="20" height="20" transform="translate(2.69 0.20) rotate(-14.21 570.00 330.00)" />
  <rect x="580.00" y="320.00" width="20" height="20" transform="translate(-0.47 0.34) rotate(15.61 590.00 330.00)" />
  <rect x="600.00" y="320.00" width="20" height="20" transform="translate(-1.87 -2.95) rotate(13.21 610.00 330.00)" />
  <rect x="60.00" y="340.00" width="20" height="20" transform="translate(-0.72 -2.22) rotate(7.19 70.00 350.00)" />
  <rect x="80.00" y="340.00" width="20" height="20" transform="translate(-3.75 1.12) rotate(-17.49 90.00 350.00)" />
  <rect x="100.00" y="340.00" width="20" height="20" transform="translate(2.60 3.00) rotate(-9.18 110.00 350.00)" />
  <rect x="120.00" y="340.00" width="20" height="20" transform="translate(-2.27 0.03) rotate(-12.57 130.00 350.00)" />
  <rect x="140.00" y="340.00" width="20" height="20" transform="translate(-1.65 2.34) rotate(-16.43 150.00 350.00)" />
  <rect x="160.00" y="340.00" width="20" height="20" transform="translate(-2.90 3.69) rotate(9.17 170.00 350.00)" />
  <rect x="180.00" y="340.00" width="20" height="20" transform="translate(1.12 -3.62) rotate(-11.20 190.00 350.00)" />
  <rect x="200.00" y="340.00" width="20" height="20" transform="translate(-2.44 -0.75) rotate(17.04 210.00 350.00)" />
  <rect x="220.00" y="340.00" width="20" height="20" transform="translate(-0.99 -1.29) rotate(-17.25 230.00 350.00)" />
  <rect x="240.00" y="340.00" width="20" height="20" transform="translate(3.15 -2.22) rotate(-15.64 250.00 350.00)" />
  <rect x="260.00" y="340.00" width="20" height="20" transform="translate(0.35 2.05) rotate(7.91 270.00 350.00)" />
  <rect x="280.00" y="340.00" width="20" height="20" transform="translate(-2.71 0.10) rotate(8.65 290.00 350.00)" />
  <rect x="300.00" y="340.00" width="20" height="20" transform="translate(2.13 2.74) rotate(3.17 310.00 350.00)" />
  <rect x="320.00" y="340.00" width="20" height="20" transform="translate(0.94 1.98) rotate(15.87 330.00 350.00)" />
  <rect x="340.00" y="340.00" width="20" height="20" transform="translate(-2.99 -1.06) rotate(7.86 350.00 350.00)" />
  <rect x="360.00" y="340.00" width="20" height="20" transform="translate(2.39 1.31) rotate(-0.86 370.00 350.00)" />
  <rect x="380.00" y="340.00" width="20" height="20" transform="translate(0.69 -2.88) rotate(-7.28 390.00 350.00)" />
  <rect x="400.00" y="340.00" width="20" height="20" transform="translate(-4.01 -1.15) rotate(-5.64 410.00 350.00)" />
  <rect x="420.00" y="340.00" width="20" height="20" transform="translate(-1.38 3.06) rotate(10.32 430.00 350.00)" />
  <rect x="440.00" y="340.00" width="20" height="20" transform="translate(3.65 1.10) rotate(-13.79 450.00 350.00)" />
  <rect x="460.00" y="340.00" width="20" height="20" transform="translate(-3.46 -0.30) rotate(-11.06 470.00 350.00)" />
  <rect x="480.00" y="340.00" width="20" height="20" transform="translate(0.91 1.11) rotate(-9.11 490.00 350.00)" />
  <rect x="500.00" y="340.00" width="20" height="20" transform="translate(2.18 0.26) rotate(7.27 510.00 350.00)" />
  <rect x="520.00" y="340.00" width="20" height="20" transform="translate(0.14 -0.17) rotate(-3.11 530.00 350.00)" />
  <rect x="540.00" y="340.00" width="20" height="20" transform="translate(-1.90 1.25) rotate(3.46 550.00 350.00)" />
  <rect x="560.00" y="340.00" width="20" height="20" transform="translate(-2.31 3.90) rotate(-3.79 570.00 350.00)" />
  <rect x="580.00" y="340.00" width="20" height="20" transform="translate(1.63 3.04) rotate(0.74 590.00 350.00)" />
  <rect x="600.00" y="340.00" width="20" height="20" transform="translate(-1.17 2.25) rotate(8.38 610.00 350.00)" />
  <rect x="60.00" y="360.00" width="20" height="20" transform="translate(-1.88 2.59) rotate(-4.10 70.00 370.00)" />
  <rect x="80.00" y="360.00" width="20" height="20" transform="translate(-2.10 -2.32) rotate(2.83 90.00 370.00)" />
  <rect x="100.00" y="360.00" width="20" height="20" transform="translate(1.89 0.16) rotate(2.98 110.00 370.00)" />
  <rect x="120.00" y="360.00" width="20" height="20" transform="translate(1.79 -1.02) rotate(0.26 130.00 370.00)" />
  <rect x="140.00" y="360.00" width="20" height="20" transform="translate(2.42 -1.50) rotate(9.85 150.00 370.00)" />
  <rect x="160.00" y="360.00" width="20" height="20" transform="translate(-0.69 -4.23) rotate(18.79 170.00 370.00)" />
  <rect x="180.00" y="360.00" width="20" height="20" transform="translate(3.81 3.68) rotate(-2.75 190.00 370.00)" />
  <rect x="200.00" y="360.00" width="20" height="20" transform="translate(-1.69 1.22) rotate(5.89 210.00 370.00)" />
  <rect x="220.00" y="360.00" width="20" height="20" transform="translate(2.93 3.23) rotate(-11.80 230.00 370.00)" />
  <rect x="240.00" y="360.00" width="20" height="20" transform="translate(3.61 -2.05) rotate(8.53 250.00 370.00)" />
  <rect x="260.00" y="360.00" width="20" height="20" transform="translate(2.49 -2.95) rotate(-4.23 270.00 370.00)" />
  <rect x="280.00" y="360.00" width="20" height="20" transform="translate(2.24 -1.21) rotate(-7.19 290.00 370.00)" />
  <rect x="300.00" y="360.00" width="20" height="20" transform="translate(2.15 -4.45) rotate(-20.56 310.00 370.00)" />
  <rect x="320.00" y="360.00" width="20" height="20" transform="translate(0.63 3.94) rotate(-12.31 330.00 370.00)" />
  <rect x="340.00" y="360.00" width="20" height="20" transform="translate(0.88 0.94) rotate(4.87 350.00 370.00)" />
  <rect x="360.00" y="360.00" width="20" height="20" transform="translate(3.30 -3.03) rotate(17.64 370.00 370.00)" />
  <rect x="380.00" y="360.00" width="20" height="20" transform="translate(-2.04 -0.57) rotate(-4.15 390.00 370.00)" />
  <rect x="400.00" y="360.00" width="20" height="20" transform="translate(-2.29 -3.60) rotate(-0.43 410.00 370.00)" />
  <rect x="420.00" y="360.00" width="20" height="20" transform="translate(2.78 3.41) rotate(8.09 430.00 370.00)" />
  <rect x="440.00" y="360.00" width="20" height="20" transform="translate(-0.77 -2.45) rotate(3.45 450.00 370.00)" />
  <rect x="460.00" y="360.00" width="20" height="20" transform="translate(-3.97 1.76) rotate(-4.87 470.00 370.00)" />
  <rect x="480.00" y="360.00" width="20" height="20" transform="translate(-0.72 1.85) rotate(-6.26 490.00 370.00)" />
  <rect x="500.00" y="360.00" width="20" height="20" transform="translate(-2.70 -0.90) rotate(-13.24 510.00 370.00)" />
  <rect x="520.00" y="360.00" width="20" height="20" transform="translate(0.12 -1.06) rotate(-0.15 530.00 370.00)" />
  <rect x="540.00" y="360.00" width="20" height="20" transform="translate(-1.99 2.32) rotate(18.88 550.00 370.00)" />
  <rect x="560.00" y="360.00" width="20" height="20" transform="translate(3.96 -1.94) rotate(-11.81 570.00 370.00)" />
  <rect x="580.00" y="360.00" width="20" height="20" transform="translate(0.42 1.50) rotate(9.81 590.00 370.00)" />
  <rect x="600.00" y="360.00" width="20" height="20" transform="translate(-1.49 -3.17) rotate(17.83 610.00 370.00)" />
  <rect x="60.00" y="380.00" width="20" height="20" transform="translate(-0.49 -3.04) rotate(-11.25 70.00 390.00)" />
  <rect x="80.00" y="380.00" width="20" height="20" transform="translate(-1.00 -5.05) rotate(-17.02 90.00 390.00)" />
  <rect x="100.00" y="380.00" width="20" height="20" transform="translate(-5.03 0.31) rotate(16.23 110.00 390.00)" />
  <rect x="120.00" y="380.00" width="20" height="20" transform="translate(-3.22 -3.39) rotate(-1.80 130.00 390.00)" />
  <rect x="140.00" y="380.00" width="20" height="20" transform="translate(-1.04 0.84) rotate(-9.09 150.00 390.00)" />
  <rect x="160.00" y="380.00" width="20" height="20" transform="translate(-2.80 -0.92) rotate(6.49 170.00 390.00)" />
  <rect x="180.00" y="380.00" width="20" height="20" transform="translate(-2.95 -3.34) rotate(8.66 190.00 390.00)" />
  <rect x="200.00" y="380.00" width="20" height="20" transform="translate(2.77 -1.94) rotate(-20.93 210.00 390.00)" />
  <rect x="220.00" y="380.00" width="20" height="20" transform="translate(-1.18 -4.66) rotate(1.08 230.00 390.00)" />
  <rect x="240.00" y="380.00" width="20" height="20" transform="translate(5.13 -1.97) rotate(-0.26 250.00 390.00)" />
  <rect x="260.00" y="380.00" width="20" height="20" transform="translate(3.35 -4.13) rotate(22.06 270.00 390.00)" />
  <rect x="280.00" y="380.00" width="20" height="20" transform="translate(-1.24 3.48) rotate(6.88 290.00 390.00)" />
  <rect x="300.00" y="380.00" width="20" height="20" transform="translate(-1.97 -4.37) rotate(-13.12 310.00 390.00)" />
  <rect x="320.00" y="380.00" width="20" height="20" transform="translate(-4.34 3.84) rotate(22.83 330.00 390.00)" />
  <rect x="340.00" y="380.00" width="20" height="20" transform="translate(-4.47 -0.55) rotate(-18.43 350.00 390.00)" />
  <rect x="360.00" y="380.00" width="20" height="20" transform="translate(2.71 0.03) rotate(1.18 370.00 390.00)" />
  <rect x="380.00" y="380.00" width="20" height="20" transform="translate(1.90 4.62) rotate(-9.27 390.00 390.00)" />
  <rect x="400.00" y="380.00" width="20" height="20" transform="translate(0.59 3.30) rotate(-2.16 410.00 390.00)" />
  <rect x="420.00" y="380.00" width="20" height="20" transform="translate(0.30 -1.44) rotate(16.27 430.00 390.00)" />
  <rect x="440.00" y="380.00" width="20" height="20" transform="translate(-5.05 -3.14) rotate(-5.62 450.00 390.00)" />
  <rect x="460.00" y="380.00" width="20" height="20" transform="translate(-1.59 2.21) rotate(-21.87 470.00 390.00)" />
  <rect x="480.00" y="380.00" width="20" height="20" transform="translate(-0.38 -1.75) rotate(-1.52 490.00 390.00)" />
  <rect x="500.00" y="380.00" width="20" height="20" transform="translate(-5.16 0.45) rotate(17.20 510.00 390.00)" />
  <rect x="520.00" y="380.00" width="20" height="20" transform="translate(-1.31 2.15) rotate(10.21 530.00 390.00)" />
  <rect x="540.00" y="380.00" width="20" height="20" transform="translate(-1.02 1.97) rotate(3.06 550.00 390.00)" />
  <rect x="560.00" y="380.00" width="20" height="20" transform="translate(2.36 -4.20) rotate(-3.87 570.00 390.00)" />
  <rect x="580.00" y="380.00" width="20" height="20" transform="translate(-1.23 -3.44) rotate(19.42 590.00 390.00)" />
  <rect x="600.00" y="380.00" width="20" height="20" transform="translate(4.53 -4.77) rotate(-16.56 610.00 390.00)" />
  <rect x="60.00" y="400.00" width="20" height="20" transform="translate(-1.83 -2.05) rotate(-2.45 70.00 410.00)" />
  <rect x="80.00" y="400.00" width="20" height="20" transform="translate(-0.67 2.93) rotate(6.39 90.00 410.00)" />
  <rect x="100.00" y="400.00" width="20" height="20" transform="translate(-5.90 4.27) rotate(16.86 110.00 410.00)" />
  <rect x="120.00" y="400.00" width="20" height="20" transform="translate(0.14 -1.90) rotate(-4.50 130.00 410.00)" />
  <rect x="140.00" y="400.00" width="20" height="20" transform="translate(-5.03 -5.94) rotate(-8.63 150.00 410.00)" />
  <rect x="160.00" y="400.00" width="20" height="20" transform="translate(-5.11 3.22) rotate(19.57 170.00 410.00)" />
  <rect x="180.00" y="400.00" width="20" height="20" transform="translate(-3.89 3.61) rotate(2.21 190.00 410.00)" />
  <rect x="200.00" y="400.00" width="20" height="20" transform="translate(0.24 -4.26) rotate(-13.38 210.00 410.00)" />
  <rect x="220.00" y="400.00" width="20" height="20" transform="translate(-4.60 3.59) rotate(-2.54 230.00 410.00)" />
  <rect x="240.00" y="400.00" width="20" height="20" transform="translate(0.61 0.55) rotate(-20.37 250.00 410.00)" />
  <rect x="260.00" y="400.00" width="20" height="20" transform="translate(1.10 -0.04) rotate(-22.34 270.00 410.00)" />
  <rect x="280.00" y="400.00" width="20" height="20" transform="translate(-2.93 3.42) rotate(-22.91 290.00 410.00)" />
  <rect x="300.00" y="400.00" width="20" height="20" transform="translate(-1.10 5.16) rotate(-6.25 310.00 410.00)" />
  <rect x="320.00" y="400.00" width="20" height="20" transform="translate(-5.40 -3.38) rotate(-11.27 330.00 410.00)" />
  <rect x="340.00" y="400.00" width="20" height="20" transform="translate(-2.03 5.48) rotate(-17.06 350.00 410.00)" />
  <rect x="360.00" y="400.00" width="20" height="20" transform="translate(2.13 -5.82) rotate(-17.12 370.00 410.00)" />
  <rect x="380.00" y="400.00" width="20" height="20" transform="translate(2.90 -2.49) rotate(15.32 390.00 410.00)" />
  <rect x="400.00" y="400.00" width="20" height="20" transform="translate(-5.15 -4.21) rotate(16.56 410.00 410.00)" />
  <rect x="420.00" y="400.00" width="20" height="20" transform="translate(-1.14 -2.01) rotate(4.48 430.00 410.00)" />
  <rect x="440.00" y="400.00" width="20" height="20" transform="translate(-4.07 0.37) rotate(15.13 450.00 410.00)" />
  <rect x="460.00" y="400.00" width="20" height="20" transform="translate(0.32 4.41) rotate(10.03 470.00 410.00)" />
  <rect x="480.00" y="400.00" width="20" height="20" transform="translate(2.63 1.84) rotate(-19.42 490.00 410.00)" />
  <rect x="500.00" y="400.00" width="20" height="20" transform="translate(1.51 5.25) rotate(-2.53 510.00 410.00)" />
  <rect x="520.00" y="400.00" width="20" height="20" transform="translate(0.09 -3.24) rotate(22.07 530.00 410.00)" />
  <rect x="540.00" y="400.00" width="20" height="20" transform="translate(3.21 -5.68) rotate(-8.05 550.00 410.00)" />
  <rect x="560.00" y="400.00" width="20" height="20" transform="translate(1.83 -0.58) rotate(-1.69 570.00 410.00)" />
  <rect x="580.00" y="400.00" width="20" height="20" transform="translate(3.70 -5.42) rotate(-7.33 590.00 410.00)" />
  <rect x="600.00" y="400.00" width="20" height="20" transform="translate(-3.70 -5.21) rotate(-4.07 610.00 410.00)" />
  <rect x="60.00" y="420.00" width="20" height="20" transform="translate(0.94 6.08) rotate(-29.74 70.00 430.00)" />
  <rect x="80.00" y="420.00" width="20" height="20" transform="translate(3.78 3.79) rotate(4.88 90.00 430.00)" />
  <rect x="100.00" y="420.00" width="20" height="20" transform="translate(2.56 0.74) rotate(23.95 110.00 430.00)" />
  <rect x="120.00" y="420.00" width="20" height="20" transform="translate(-5.66 -4.31) rotate(22.00 130.00 430.00)" />
  <rect x="140.00" y="420.00" width="20" height="20" transform="translate(5.58 1.39) rotate(2.14 150.00 430.00)" />
  <rect x="160.00" y="420.00" width="20" height="20" transform="translate(-1.28 -0.47) rotate(-5.89 170.00 430.00)" />
  <rect x="180.00" y="420.00" width="20" height="20" transform="translate(0.63 -4.18) rotate(-22.22 190.00 430.00)" />
  <rect x="200.00" y="420.00" width="20" height="20" transform="translate(3.29 -1.55) rotate(-0.92 210.00 430.00)" />
  <rect x="220.00" y="420.00" width="20" height="20" transform="translate(2.03 -1.23) rotate(14.82 230.00 430.00)" />
  <rect x="240.00" y="420.00" width="20" height="20" transform="translate(-6.29 -6.32) rotate(14.79 250.00 430.00)" />
  <rect x="260.00" y="420.00" width="20" height="20" transform="translate(-0.11 3.10) rotate(-14.06 270.00 430.00)" />
  <rect x="280.00" y="420.00" width="20" height="20" transform="translate(5.93 0.23) rotate(-24.24 290.00 430.00)" />
  <rect x="300.00" y="420.00" width="20" height="20" transform="translate(-0.34 -5.13) rotate(26.40 310.00 430.00)" />
  <rect x="320.00" y="420.00" width="20" height="20" transform="translate(0.46 -2.89) rotate(-24.33 330.00 430.00)" />
  <rect x="340.00" y="420.00" width="20" height="20" transform="translate(-5.15 -5.74) rotate(27.06 350.00 430.00)" />
  <rect x="360.00" y="420.00" width="20" height="20" transform="translate(-0.59 -4.61) rotate(24.24 370.00 430.00)" />
  <rect x="380.00" y="420.00" width="20" height="20" transform="translate(-3.16 -4.89) rotate(-22.02 390.00 430.00)" />
  <rect x="400.00" y="420.00" width="20" height="20" transform="translate(3.83 6.08) rotate(-27.53 410.00 430.00)" />
  <rect x="420.00" y="420.00" width="20" height="20" transform="translate(1.61 1.91) rotate(15.06 430.00 430.00)" />
  <rect x="440.00" y="420.00" width="20" height="20" transform="translate(-6.38 -5.58) rotate(-20.56 450.00 430.00)" />
  <rect x="460.00" y="420.00" width="20" height="20" transform="translate(4.83 4.83) rotate(-9.11 470.00 430.00)" />
  <rect x="480.00" y="420.00" width="20" height="20" transform="translate(6.06 -3.76) rotate(-25.27 490.00 430.00)" />
  <rect x="500.00" y="420.00" width="20" height="20" transform="translate(0.14 0.58) rotate(5.26 510.00 430.00)" />
  <rect x="520.00" y="420.00" width="20" height="20" transform="translate(-1.87 -6.47) rotate(11.61 530.00 430.00)" />
  <rect x="540.00" y="420.00" width="20" height="20" transform="translate(-6.15 -5.32) rotate(9.66 550.00 430.00)" />
  <rect x="560.00" y="420.00" width="20" height="20" transform="translate(0.72 1.78) rotate(-11.04 570.00 430.00)" />
  <rect x="580.00" y="420.00" width="20" height="20" transform="translate(-1.20 -5.16) rotate(29.93 590.00 430.00)" />
  <rect x="600.00" y="420.00" width="20" height="20" transform="translate(2.55 -5.10) rotate(-11.35 610.00 430.00)" />
  <rect x="60.00" y="440.00" width="20" height="20" transform="translate(4.45 -1.03) rotate(20.79 70.00 450.00)" />
  <rect x="80.00" y="440.00" width="20" height="20" transform="translate(-4.21 -0.47) rotate(-13.22 90.00 450.00)" />
  <rect x="100.00" y="440.00" width="20" height="20" transform="translate(5.21 -2.73) rotate(17.16 110.00 450.00)" />
  <rect x="120.00" y="440.00" width="20" height="20" transform="translate(-3.40 -4.69) rotate(-32.80 130.00 450.00)" />
  <rect x="140.00" y="440.00" width="20" height="20" transform="translate(3.59 -4.63) rotate(-1.26 150.00 450.00)" />
  <rect x="160.00" y="440.00" width="20" height="20" transform="translate(1.99 -4.04) rotate(26.63 170.00 450.00)" />
  <rect x="180.00" y="440.00" width="20" height="20" transform="translate(4.74 -1.44) rotate(18.23 190.00 450.00)" />
  <rect x="200.00" y="440.00" width="20" height="20" transform="translate(1.01 7.13) rotate(-12.66 210.00 450.00)" />
  <rect x="220.00" y="440.00" width="20" height="20" transform="translate(-1.18 -5.07) rotate(30.71 230.00 450.00)" />
  <rect x="240.00" y="440.00" width="20" height="20" transform="translate(6.85 2.12) rotate(-26.37 250.00 450.00)" />
  <rect x="260.00" y="440.00" width="20" height="20" transform="translate(3.97 -2.83) rotate(-30.95 270.00 450.00)" />
  <rect x="280.00" y="440.00" width="20" height="20" transform="translate(-0.35 -3.31) rotate(0.50 290.00 450.00)" />
  <rect x="300.00" y="440.00" width="20" height="20" transform="translate(-1.03 -2.13) rotate(6.11 310.00 450.00)" />
  <rect x="320.00" y="440.00" width="20" height="20" transform="translate(2.69 7.03) rotate(-6.61 330.00 450.00)" />
  <rect x="340.00" y="440.00" width="20" height="20" transform="translate(-2.82 -0.88) rotate(-5.09 350.00 450.00)" />
  <rect x="360.00" y="440.00" width="20" height="20" transform="translate(6.17 1.03) rotate(-6.86 370.00 450.00)" />
  <rect x="380.00" y="440.00" width="20" height="20" transform="translate(-6.61 6.26) rotate(32.46 390.00 450.00)" />
  <rect x="400.00" y="440.00" width="20" height="20" transform="translate(-4.06 6.67) rotate(28.84 410.00 450.00)" />
  <rect x="420.00" y="440.00" width="20" height="20" transform="translate(-5.55 1.06) rotate(30.05 430.00 450.00)" />
  <rect x="440.00" y="440.00" width="20" height="20" transform="translate(-2.14 -3.61) rotate(-32.87 450.00 450.00)" />
  <rect x="460.00" y="440.00" width="20" height="20" transform="translate(-4.01 0.81) rotate(8.30 470.00 450.00)" />
  <rect x="480.00" y="440.00" width="20" height="20" transform="translate(-4.03 1.21) rotate(-3.71 490.00 450.00)" />
  <rect x="500.00" y="440.00" width="20" height="20" transform="translate(-0.58 2.37) rotate(0.33 510.00 450.00)" />
  <rect x="520.00" y="440.00" width="20" height="20" transform="translate(3.64 -4.92) rotate(29.79 530.00 450.00)" />
  <rect x="540.00" y="440.00" width="20" height="20" transform="translate(-6.85 2.06) rotate(24.78 550.00 450.00)" />
  <rect x="560.00" y="440.00" width="20" height="20" transform="translate(2.02 1.67) rotate(-13.18 570.00 450.00)" />
  <rect x="580.00" y="440.00" width="20" height="20" transform="translate(-5.20 -5.59) rotate(3.26 590.00 450.00)" />
  <rect x="600.00" y="440.00" width="20" height="20" transform="translate(1.96 3.82) rotate(31.81 610.00 450.00)" />
  <rect x="60.00" y="460.00" width="20" height="20" transform="translate(-3.09 -3.94) rotate(19.94 70.00 470.00)" />
  <rect x="80.00" y="460.00" width="20" height="20" transform="translate(-1.16 -0.60) rotate(-4.13 90.00 470.00)" />
  <rect x="100.00" y="460.00" width="20" height="20" transform="translate(4.15 -7.97) rotate(-14.23 110.00 470.00)" />
  <rect x="120.00" y="460.00" width="20" height="20" transform="translate(-3.86 1.84) rotate(26.46 130.00 470.00)" />
  <rect x="140.00" y="460.00" width="20" height="20" transform="translate(3.08 -0.36) rotate(-0.06 150.00 470.00)" />
  <rect x="160.00" y="460.00" width="20" height="20" transform="translate(-4.86 -7.26) rotate(32.80 170.00 470.00)" />
  <rect x="180.00" y="460.00" width="20" height="20" transform="translate(0.15 -4.44) rotate(-27.00 190.00 470.00)" />
  <rect x="200.00" y="460.00" width="20" height="20" transform="translate(3.63 1.13) rotate(-6.94 210.00 470.00)" />
  <rect x="220.00" y="460.00" width="20" height="20" transform="translate(3.02 7.10) rotate(-11.14 230.00 470.00)" />
  <rect x="240.00" y="460.00" width="20" height="20" transform="translate(-0.28 2.59) rotate(-3.52 250.00 470.00)" />
  <rect x="260.00" y="460.00" width="20" height="20" transform="translate(-0.25 -5.39) rotate(-32.44 270.00 470.00)" />
  <rect x="280.00" y="460.00" width="20" height="20" transform="translate(2.77 8.04) rotate(17.12 290.00 470.00)" />
  <rect x="300.00" y="460.00" width="20" height="20" transform="translate(-1.13 4.68) rotate(-32.12 310.00 470.00)" />
  <rect x="320.00" y="460.00" width="20" height="20" transform="translate(0.61 6.87) rotate(35.15 330.00 470.00)" />
  <rect x="340.00" y="460.00" width="20" height="20" transform="translate(6.89 4.80) rotate(14.32 350.00 470.00)" />
  <rect x="360.00" y="460.00" width="20" height="20" transform="translate(2.50 -4.72) rotate(-30.53 370.00 470.00)" />
  <rect x="380.00" y="460.00" width="20" height="20" transform="translate(-0.68 -3.49) rotate(-5.58 390.00 470.00)" />
  <rect x="400.00" y="460.00" width="20" height="20" transform="translate(-0.01 1.86) rotate(-15.25 410.00 470.00)" />
  <rect x="420.00" y="460.00" width="20" height="20" transform="translate(4.37 1.77) rotate(-2.50 430.00 470.00)" />
  <rect x="440.00" y="460.00" width="20" height="20" transform="translate(1.14 -7.71) rotate(23.94 450.00 470.00)" />
  <rect x="460.00" y="460.00" width="20" height="20" transform="translate(6.92 4.29) rotate(25.94 470.00 470.00)" />
  <rect x="480.00" y="460.00" width="20" height="20" transform="translate(2.85 -1.84) rotate(-29.18 490.00 470.00)" />
  <rect x="500.00" y="460.00" width="20" height="20" transform="translate(-5.68 -5.53) rotate(21.52 510.00 470.00)" />
  <rect x="520.00" y="460.00" width="20" height="20" transform="translate(5.50 -6.86) rotate(-17.38 530.00 470.00)" />
  <rect x="540.00" y="460.00" width="20" height="20" transform="translate(5.54 6.21) rotate(-30.41 550.00 470.00)" />
  <rect x="560.00" y="460.00" width="20" height="20" transform="translate(1.65 6.32) rotate(31.81 570.00 470.00)" />
  <rect x="580.00" y="460.00" width="20" height="20" transform="translate(-7.20 1.65) rotate(36.33 590.00 470.00)" />
  <rect x="600.00" y="460.00" width="20" height="20" transform="translate(-8.04 6.83) rotate(3.98 610.00 470.00)" />
  <rect x="60.00" y="480.00" width="20" height="20" transform="translate(-4.11 8.26) rotate(31.53 70.00 490.00)" />
  <rect x="80.00" y="480.00" width="20" height="20" transform="translate(9.02 6.92) rotate(34.00 90.00 490.00)" />
  <rect x="100.00" y="480.00" width="20" height="20" transform="translate(-2.24 8.09) rotate(24.29 110.00 490.00)" />
  <rect x="120.00" y="480.00" width="20" height="20" transform="translate(1.51 -3.55) rotate(-0.03 130.00 490.00)" />
  <rect x="140.00" y="480.00" width="20" height="20" transform="translate(6.47 -8.39) rotate(12.61 150.00 490.00)" />
  <rect x="160.00" y="480.00" width="20" height="20" transform="translate(-0.56 2.20) rotate(28.66 170.00 490.00)" />
  <rect x="180.00" y="480.00" width="20" height="20" transform="translate(-3.25 3.12) rotate(-1.20 190.00 490.00)" />
  <rect x="200.00" y="480.00" width="20" height="20" transform="translate(5.50 -3.07) rotate(20.34 210.00 490.00)" />
  <rect x="220.00" y="480.00" width="20" height="20" transform="translate(-2.20 0.45) rotate(-35.75 230.00 490.00)" />
  <rect x="240.00" y="480.00" width="20" height="20" transform="translate(-6.85 -4.61) rotate(-39.10 250.00 490.00)" />
  <rect x="260.00" y="480.00" width="20" height="20" transform="translate(8.81 -1.30) rotate(-25.46 270.00 490.00)" />
  <rect x="280.00" y="480.00" width="20" height="20" transform="translate(-5.93 5.86) rotate(-33.05 290.00 490.00)" />
  <rect x="300.00" y="480.00" width="20" height="20" transform="translate(-5.52 -7.64) rotate(32.22 310.00 490.00)" />
  <rect x="320.00" y="480.00" width="20" height="20" transform="translate(0.43 -1.46) rotate(25.90 330.00 490.00)" />
  <rect x="340.00" y="480.00" width="20" height="20" transform="translate(1.96 -0.97) rotate(-5.37 350.00 490.00)" />
  <rect x="360.00" y="480.00" width="20" height="20" transform="translate(-1.18 -8.45) rotate(23.16 370.00 490.00)" />
  <rect x="380.00" y="480.00" width="20" height="20" transform="translate(-2.29 7.24) rotate(12.64 390.00 490.00)" />
  <rect x="400.00" y="480.00" width="20" height="20" transform="translate(0.42 -0.92) rotate(14.34 410.00 490.00)" />
  <rect x="420.00" y="480.00" width="20" height="20" transform="translate(-4.78 -2.48) rotate(-25.11 430.00 490.00)" />
  <rect x="440.00" y="480.00" width="20" height="20" transform="translate(-2.70 -2.48) rotate(32.28 450.00 490.00)" />
  <rect x="460.00" y="480.00" width="20" height="20" transform="translate(-7.06 6.73) rotate(23.76 470.00 490.00)" />
  <rect x="480.00" y="480.00" width="20" height="20" transform="translate(-4.07 6.96) rotate(-33.98 490.00 490.00)" />
  <rect x="500.00" y="480.00" width="20" height="20" transform="translate(0.01 0.88) rotate(-23.56 510.00 490.00)" />
  <rect x="520.00" y="480.00" width="20" height="20" transform="translate(1.99 -4.31) rotate(6.27 530.00 490.00)" />
  <rect x="540.00" y="480.00" width="20" height="20" transform="translate(7.36 3.68) rotate(-35.37 550.00 490.00)" />
  <rect x="560.00" y="480.00" width="20" height="20" transform="translate(-3.64 3.93) rotate(-34.40 570.00 490.00)" />
  <rect x="580.00" y="480.00" width="20" height="20" transform="translate(7.55 7.58) rotate(20.39 590.00 490.00)" />
  <rect x="600.00" y="480.00" width="20" height="20" transform="translate(2.26 1.13) rotate(5.98 610.00 490.00)" />
  </g>
</svg>